%TF.GenerationSoftware,KiCad,Pcbnew,9.0.3*%
%TF.CreationDate,2025-07-29T11:34:24+01:00*%
%TF.ProjectId,hexControllerV3,68657843-6f6e-4747-926f-6c6c65725633,rev?*%
%TF.SameCoordinates,Original*%
%TF.FileFunction,Paste,Top*%
%TF.FilePolarity,Positive*%
%FSLAX46Y46*%
G04 Gerber Fmt 4.6, Leading zero omitted, Abs format (unit mm)*
G04 Created by KiCad (PCBNEW 9.0.3) date 2025-07-29 11:34:24*
%MOMM*%
%LPD*%
G01*
G04 APERTURE LIST*
G04 Aperture macros list*
%AMRoundRect*
0 Rectangle with rounded corners*
0 $1 Rounding radius*
0 $2 $3 $4 $5 $6 $7 $8 $9 X,Y pos of 4 corners*
0 Add a 4 corners polygon primitive as box body*
4,1,4,$2,$3,$4,$5,$6,$7,$8,$9,$2,$3,0*
0 Add four circle primitives for the rounded corners*
1,1,$1+$1,$2,$3*
1,1,$1+$1,$4,$5*
1,1,$1+$1,$6,$7*
1,1,$1+$1,$8,$9*
0 Add four rect primitives between the rounded corners*
20,1,$1+$1,$2,$3,$4,$5,0*
20,1,$1+$1,$4,$5,$6,$7,0*
20,1,$1+$1,$6,$7,$8,$9,0*
20,1,$1+$1,$8,$9,$2,$3,0*%
G04 Aperture macros list end*
%ADD10RoundRect,0.250000X-0.250000X-0.475000X0.250000X-0.475000X0.250000X0.475000X-0.250000X0.475000X0*%
%ADD11RoundRect,0.375000X-0.375000X0.625000X-0.375000X-0.625000X0.375000X-0.625000X0.375000X0.625000X0*%
%ADD12RoundRect,0.500000X-1.400000X0.500000X-1.400000X-0.500000X1.400000X-0.500000X1.400000X0.500000X0*%
%ADD13RoundRect,0.250000X0.262500X0.450000X-0.262500X0.450000X-0.262500X-0.450000X0.262500X-0.450000X0*%
%ADD14RoundRect,0.250000X0.450000X-0.262500X0.450000X0.262500X-0.450000X0.262500X-0.450000X-0.262500X0*%
%ADD15RoundRect,0.250000X-0.262500X-0.450000X0.262500X-0.450000X0.262500X0.450000X-0.262500X0.450000X0*%
%ADD16RoundRect,0.150000X0.150000X0.425000X-0.150000X0.425000X-0.150000X-0.425000X0.150000X-0.425000X0*%
%ADD17RoundRect,0.075000X0.075000X0.500000X-0.075000X0.500000X-0.075000X-0.500000X0.075000X-0.500000X0*%
%ADD18O,1.000000X2.100000*%
%ADD19O,1.000000X1.800000*%
%ADD20RoundRect,0.250000X0.250000X0.475000X-0.250000X0.475000X-0.250000X-0.475000X0.250000X-0.475000X0*%
%ADD21R,0.800000X0.400000*%
%ADD22R,0.400000X0.800000*%
%ADD23R,1.200000X1.200000*%
%ADD24R,0.800000X0.800000*%
%ADD25R,1.800000X1.350000*%
%ADD26R,0.940000X1.430000*%
%ADD27R,1.800000X2.300000*%
%ADD28R,1.390000X0.960000*%
%ADD29R,1.390000X0.910000*%
%ADD30R,1.700000X1.300000*%
%ADD31R,3.400000X0.980000*%
%ADD32R,0.700000X1.525000*%
%ADD33R,3.100000X2.210000*%
%ADD34R,1.430000X0.940000*%
G04 APERTURE END LIST*
D10*
%TO.C,C9*%
X134250000Y-61760000D03*
X136150000Y-61760000D03*
%TD*%
D11*
%TO.C,U2*%
X138936900Y-71512600D03*
X136636900Y-71512600D03*
D12*
X136636900Y-77812600D03*
D11*
X134336900Y-71512600D03*
%TD*%
D13*
%TO.C,R6*%
X126512500Y-71487500D03*
X124687500Y-71487500D03*
%TD*%
%TO.C,R4*%
X145590900Y-60274200D03*
X143765900Y-60274200D03*
%TD*%
D14*
%TO.C,R2*%
X162001200Y-81864900D03*
X162001200Y-80039900D03*
%TD*%
D13*
%TO.C,R8*%
X126602500Y-65290000D03*
X124777500Y-65290000D03*
%TD*%
D14*
%TO.C,R1*%
X142519400Y-87900300D03*
X142519400Y-86075300D03*
%TD*%
D13*
%TO.C,R7*%
X126602500Y-63258000D03*
X124777500Y-63258000D03*
%TD*%
D15*
%TO.C,R3*%
X159539300Y-60198000D03*
X161364300Y-60198000D03*
%TD*%
D16*
%TO.C,J1*%
X155701200Y-58496200D03*
X154901200Y-58496200D03*
D17*
X153751200Y-58496200D03*
X152751200Y-58496200D03*
X152251200Y-58496200D03*
X151251200Y-58496200D03*
D16*
X150101200Y-58496200D03*
X149301200Y-58496200D03*
X149301200Y-58496200D03*
X150101200Y-58496200D03*
D17*
X150751200Y-58496200D03*
X151751200Y-58496200D03*
X153251200Y-58496200D03*
X154251200Y-58496200D03*
D16*
X154901200Y-58496200D03*
X155701200Y-58496200D03*
D18*
X156821200Y-57921200D03*
D19*
X156821200Y-53741200D03*
D18*
X148181200Y-57921200D03*
D19*
X148181200Y-53741200D03*
%TD*%
D20*
%TO.C,C8*%
X136142500Y-57670000D03*
X134242500Y-57670000D03*
%TD*%
D15*
%TO.C,R5*%
X134267500Y-59700000D03*
X136092500Y-59700000D03*
%TD*%
D21*
%TO.C,IC1*%
X159247600Y-84700400D03*
X159247600Y-83850400D03*
X159247600Y-83000400D03*
X159247600Y-82150400D03*
X159247600Y-81300400D03*
X159247600Y-80450400D03*
X159247600Y-79600400D03*
X159247600Y-78750400D03*
X159247600Y-77900400D03*
X159247600Y-77050400D03*
X159247600Y-76200400D03*
X159247600Y-75350400D03*
X159247600Y-74500400D03*
X159247600Y-73650400D03*
X159247600Y-72800400D03*
D22*
X158197600Y-71750400D03*
X157347600Y-71750400D03*
X156497600Y-71750400D03*
X155647600Y-71750400D03*
X154797600Y-71750400D03*
X153947600Y-71750400D03*
X153097600Y-71750400D03*
X152247600Y-71750400D03*
X151397600Y-71750400D03*
X150547600Y-71750400D03*
X149697600Y-71750400D03*
X148847600Y-71750400D03*
X147997600Y-71750400D03*
X147147600Y-71750400D03*
X146297600Y-71750400D03*
D21*
X145247600Y-72800400D03*
X145247600Y-73650400D03*
X145247600Y-74500400D03*
X145247600Y-75350400D03*
X145247600Y-76200400D03*
X145247600Y-77050400D03*
X145247600Y-77900400D03*
X145247600Y-78750400D03*
X145247600Y-79600400D03*
X145247600Y-80450400D03*
X145247600Y-81300400D03*
X145247600Y-82150400D03*
X145247600Y-83000400D03*
X145247600Y-83850400D03*
X145247600Y-84700400D03*
D22*
X146297600Y-85750400D03*
X147147600Y-85750400D03*
X147997600Y-85750400D03*
X148847600Y-85750400D03*
X149697600Y-85750400D03*
X150547600Y-85750400D03*
X151397600Y-85750400D03*
X152247600Y-85750400D03*
X153097600Y-85750400D03*
X153947600Y-85750400D03*
X154797600Y-85750400D03*
X155647600Y-85750400D03*
X156497600Y-85750400D03*
X157347600Y-85750400D03*
X158197600Y-85750400D03*
D23*
X152247600Y-78750400D03*
D24*
X159247600Y-85750400D03*
X159247600Y-71750400D03*
X145247600Y-71750400D03*
X145247600Y-85750400D03*
D23*
X153897600Y-80400400D03*
X153897600Y-78750400D03*
X153897600Y-77100400D03*
X152247600Y-77100400D03*
X150597600Y-77100400D03*
X150597600Y-78750400D03*
X150597600Y-80400400D03*
X152247600Y-80400400D03*
%TD*%
D24*
%TO.C,LED4*%
X129743200Y-55092600D03*
X129743200Y-53442600D03*
%TD*%
D25*
%TO.C,S2*%
X160324800Y-57515400D03*
X160324800Y-53365400D03*
%TD*%
D24*
%TO.C,LED1*%
X138658600Y-53417200D03*
X138658600Y-55067200D03*
%TD*%
D26*
%TO.C,C13*%
X126497500Y-73387500D03*
X124857500Y-73387500D03*
%TD*%
%TO.C,C11*%
X134254400Y-67132600D03*
X135894400Y-67132600D03*
%TD*%
D24*
%TO.C,LED2*%
X135673000Y-55068200D03*
X135673000Y-53418200D03*
%TD*%
D27*
%TO.C,C1*%
X131734400Y-76832600D03*
X128834400Y-76832600D03*
%TD*%
D28*
%TO.C,C6*%
X141325600Y-57658000D03*
X141325600Y-56078000D03*
%TD*%
D29*
%TO.C,C5*%
X142519400Y-84709000D03*
X142519400Y-83069000D03*
%TD*%
D26*
%TO.C,C10*%
X134228200Y-65231600D03*
X135868200Y-65231600D03*
%TD*%
D30*
%TO.C,C2*%
X131784400Y-73892600D03*
X129084400Y-73892600D03*
%TD*%
D31*
%TO.C,L1*%
X130470000Y-69005000D03*
X130470000Y-71375000D03*
%TD*%
D24*
%TO.C,LED5*%
X153460000Y-104810000D03*
X151810000Y-104810000D03*
%TD*%
D32*
%TO.C,IC2*%
X132345000Y-59788000D03*
X131075000Y-59788000D03*
X129805000Y-59788000D03*
X128535000Y-59788000D03*
X128535000Y-65212000D03*
X129805000Y-65212000D03*
X131075000Y-65212000D03*
X132345000Y-65212000D03*
D33*
X130440000Y-62500000D03*
%TD*%
D28*
%TO.C,C4*%
X161925000Y-83362800D03*
X161925000Y-84942800D03*
%TD*%
D25*
%TO.C,S1*%
X144703800Y-57540800D03*
X144703800Y-53390800D03*
%TD*%
D24*
%TO.C,LED3*%
X132689600Y-53418200D03*
X132689600Y-55068200D03*
%TD*%
D26*
%TO.C,C12*%
X134228200Y-69067000D03*
X135868200Y-69067000D03*
%TD*%
D34*
%TO.C,C3*%
X163880800Y-83307400D03*
X163880800Y-84947400D03*
%TD*%
D26*
%TO.C,C14*%
X124857500Y-69517500D03*
X126497500Y-69517500D03*
%TD*%
M02*
