M48
; DRILL file {KiCad 9.0.3} date 2025-07-29T11:34:28+0100
; FORMAT={-:-/ absolute / metric / decimal}
; #@! TF.CreationDate,2025-07-29T11:34:28+01:00
; #@! TF.GenerationSoftware,Kicad,Pcbnew,9.0.3
; #@! TF.FileFunction,Plated,1,4,PTH
FMAT,2
METRIC
; #@! TA.AperFunction,Plated,PTH,ViaDrill
T1C0.300
; #@! TA.AperFunction,Plated,PTH,ComponentDrill
T2C0.600
; #@! TA.AperFunction,Plated,PTH,ComponentDrill
T3C0.800
; #@! TA.AperFunction,Plated,PTH,ComponentDrill
T4C1.000
; #@! TA.AperFunction,Plated,PTH,ComponentDrill
T5C1.050
; #@! TA.AperFunction,Plated,PTH,ComponentDrill
T6C1.200
; #@! TA.AperFunction,Plated,PTH,ComponentDrill
T7C1.600
; #@! TA.AperFunction,Plated,PTH,ComponentDrill
T8C2.524
; #@! TA.AperFunction,Plated,PTH,ComponentDrill
T9C2.800
%
G90
G05
T1
X124.84Y-74.74
X126.492Y-68.351
X126.497Y-75.204
X127.584Y-76.833
X128.24Y-62.5
X133.045Y-57.658
X136.637Y-73.355
X136.64Y-79.62
X137.444Y-65.232
X137.584Y-61.753
X140.434Y-71.523
X141.326Y-54.94
X141.376Y-58.852
X141.402Y-64.567
X142.52Y-89.23
X142.596Y-60.249
X143.92Y-74.45
X143.94Y-75.36
X143.94Y-76.22
X143.95Y-77.06
X144.704Y-54.61
X145.24Y-70.75
X146.13Y-72.8
X146.14Y-82.98
X146.558Y-60.198
X146.73Y-73.64
X147.16Y-72.56
X147.99Y-72.57
X148.768Y-60.63
X149.71Y-72.6
X150.774Y-57.125
X151.42Y-77.1
X151.76Y-62.37
X151.76Y-64.43
X152.25Y-84.82
X153.09Y-77.1
X153.21Y-62.34
X153.21Y-64.44
X153.746Y-57.125
X153.924Y-70.104
X154.37Y-104.82
X154.813Y-69.266
X155.612Y-69.295
X156.134Y-60.681
X156.498Y-70.079
X157.97Y-80.48
X157.99Y-79.64
X158.01Y-81.32
X158.445Y-60.198
X159.25Y-70.72
X160.31Y-77.05
X160.31Y-77.89
X160.31Y-78.79
X160.32Y-76.22
X160.325Y-54.458
X160.39Y-85.75
X162.585Y-60.173
X165.287Y-83.307
X165.42Y-76.44
X166.5Y-76.39
T3
X186.34Y-62.13
X186.34Y-64.67
X186.34Y-67.21
X186.34Y-69.75
X186.34Y-72.29
X186.34Y-74.83
X186.34Y-77.37
T4
X112.64Y-59.84
X112.64Y-62.38
X114.77Y-97.4
X114.77Y-103.9
X117.22Y-59.865
X117.22Y-62.405
X119.27Y-97.4
X119.27Y-103.9
X125.12Y-110.4
X127.62Y-110.4
X130.12Y-110.4
X137.47Y-98.15
X137.47Y-100.65
X137.47Y-103.15
X164.763Y-97.384
X164.763Y-103.884
X169.263Y-97.384
X169.263Y-103.884
X175.113Y-110.384
X177.613Y-110.384
X180.113Y-110.384
X187.463Y-98.134
X187.463Y-100.634
X187.463Y-103.134
X190.0Y-60.5
X190.0Y-63.04
X193.81Y-60.5
X193.81Y-63.04
T5
X91.389Y-74.725
X91.389Y-79.225
X97.889Y-74.725
X97.889Y-79.225
X100.889Y-84.224
X100.889Y-88.724
X100.89Y-65.24
X100.89Y-69.74
X107.389Y-84.224
X107.389Y-88.724
X107.39Y-65.24
X107.39Y-69.74
X110.387Y-74.74
X110.387Y-79.24
X116.887Y-74.74
X116.887Y-79.24
X149.39Y-96.33
X149.39Y-100.83
X155.89Y-96.33
X155.89Y-100.83
T6
X193.6Y-74.48
X193.6Y-76.98
X193.6Y-79.48
X208.1Y-74.48
X208.1Y-79.48
T7
X120.87Y-92.9
X120.87Y-108.4
X134.37Y-92.9
X134.37Y-108.4
X170.863Y-92.884
X170.863Y-108.384
X184.363Y-92.884
X184.363Y-108.384
T8
X201.1Y-71.28
X201.1Y-82.68
T9
X124.61Y-53.5
X124.61Y-86.0
X180.11Y-53.5
X180.11Y-86.0
T2
G00X148.181Y-54.141
M15
G01X148.181Y-53.341
M16
G05
G00X148.181Y-58.471
M15
G01X148.181Y-57.371
M16
G05
G00X156.821Y-54.141
M15
G01X156.821Y-53.341
M16
G05
G00X156.821Y-58.471
M15
G01X156.821Y-57.371
M16
G05
T3
G00X92.392Y-124.982
M15
G01X93.488Y-125.077
M16
G05
G00X97.442Y-67.262
M15
G01X98.538Y-67.358
M16
G05
G00X206.072Y-66.168
M15
G01X207.168Y-66.072
M16
G05
G00X211.122Y-123.887
M15
G01X212.218Y-123.792
M16
G05
M30
