%TF.GenerationSoftware,KiCad,Pcbnew,9.0.3*%
%TF.CreationDate,2025-07-29T11:34:24+01:00*%
%TF.ProjectId,hexControllerV3,68657843-6f6e-4747-926f-6c6c65725633,rev?*%
%TF.SameCoordinates,Original*%
%TF.FileFunction,Legend,Top*%
%TF.FilePolarity,Positive*%
%FSLAX46Y46*%
G04 Gerber Fmt 4.6, Leading zero omitted, Abs format (unit mm)*
G04 Created by KiCad (PCBNEW 9.0.3) date 2025-07-29 11:34:24*
%MOMM*%
%LPD*%
G01*
G04 APERTURE LIST*
%ADD10C,0.150000*%
%ADD11C,0.254000*%
%ADD12C,0.100000*%
%ADD13C,0.120000*%
%ADD14C,0.200000*%
G04 APERTURE END LIST*
D10*
X137843333Y-62119580D02*
X137795714Y-62167200D01*
X137795714Y-62167200D02*
X137652857Y-62214819D01*
X137652857Y-62214819D02*
X137557619Y-62214819D01*
X137557619Y-62214819D02*
X137414762Y-62167200D01*
X137414762Y-62167200D02*
X137319524Y-62071961D01*
X137319524Y-62071961D02*
X137271905Y-61976723D01*
X137271905Y-61976723D02*
X137224286Y-61786247D01*
X137224286Y-61786247D02*
X137224286Y-61643390D01*
X137224286Y-61643390D02*
X137271905Y-61452914D01*
X137271905Y-61452914D02*
X137319524Y-61357676D01*
X137319524Y-61357676D02*
X137414762Y-61262438D01*
X137414762Y-61262438D02*
X137557619Y-61214819D01*
X137557619Y-61214819D02*
X137652857Y-61214819D01*
X137652857Y-61214819D02*
X137795714Y-61262438D01*
X137795714Y-61262438D02*
X137843333Y-61310057D01*
X138319524Y-62214819D02*
X138510000Y-62214819D01*
X138510000Y-62214819D02*
X138605238Y-62167200D01*
X138605238Y-62167200D02*
X138652857Y-62119580D01*
X138652857Y-62119580D02*
X138748095Y-61976723D01*
X138748095Y-61976723D02*
X138795714Y-61786247D01*
X138795714Y-61786247D02*
X138795714Y-61405295D01*
X138795714Y-61405295D02*
X138748095Y-61310057D01*
X138748095Y-61310057D02*
X138700476Y-61262438D01*
X138700476Y-61262438D02*
X138605238Y-61214819D01*
X138605238Y-61214819D02*
X138414762Y-61214819D01*
X138414762Y-61214819D02*
X138319524Y-61262438D01*
X138319524Y-61262438D02*
X138271905Y-61310057D01*
X138271905Y-61310057D02*
X138224286Y-61405295D01*
X138224286Y-61405295D02*
X138224286Y-61643390D01*
X138224286Y-61643390D02*
X138271905Y-61738628D01*
X138271905Y-61738628D02*
X138319524Y-61786247D01*
X138319524Y-61786247D02*
X138414762Y-61833866D01*
X138414762Y-61833866D02*
X138605238Y-61833866D01*
X138605238Y-61833866D02*
X138700476Y-61786247D01*
X138700476Y-61786247D02*
X138748095Y-61738628D01*
X138748095Y-61738628D02*
X138795714Y-61643390D01*
X116886666Y-56939819D02*
X116886666Y-57654104D01*
X116886666Y-57654104D02*
X116839047Y-57796961D01*
X116839047Y-57796961D02*
X116743809Y-57892200D01*
X116743809Y-57892200D02*
X116600952Y-57939819D01*
X116600952Y-57939819D02*
X116505714Y-57939819D01*
X117839047Y-56939819D02*
X117362857Y-56939819D01*
X117362857Y-56939819D02*
X117315238Y-57416009D01*
X117315238Y-57416009D02*
X117362857Y-57368390D01*
X117362857Y-57368390D02*
X117458095Y-57320771D01*
X117458095Y-57320771D02*
X117696190Y-57320771D01*
X117696190Y-57320771D02*
X117791428Y-57368390D01*
X117791428Y-57368390D02*
X117839047Y-57416009D01*
X117839047Y-57416009D02*
X117886666Y-57511247D01*
X117886666Y-57511247D02*
X117886666Y-57749342D01*
X117886666Y-57749342D02*
X117839047Y-57844580D01*
X117839047Y-57844580D02*
X117791428Y-57892200D01*
X117791428Y-57892200D02*
X117696190Y-57939819D01*
X117696190Y-57939819D02*
X117458095Y-57939819D01*
X117458095Y-57939819D02*
X117362857Y-57892200D01*
X117362857Y-57892200D02*
X117315238Y-57844580D01*
X140422495Y-74177419D02*
X140422495Y-74986942D01*
X140422495Y-74986942D02*
X140470114Y-75082180D01*
X140470114Y-75082180D02*
X140517733Y-75129800D01*
X140517733Y-75129800D02*
X140612971Y-75177419D01*
X140612971Y-75177419D02*
X140803447Y-75177419D01*
X140803447Y-75177419D02*
X140898685Y-75129800D01*
X140898685Y-75129800D02*
X140946304Y-75082180D01*
X140946304Y-75082180D02*
X140993923Y-74986942D01*
X140993923Y-74986942D02*
X140993923Y-74177419D01*
X141422495Y-74272657D02*
X141470114Y-74225038D01*
X141470114Y-74225038D02*
X141565352Y-74177419D01*
X141565352Y-74177419D02*
X141803447Y-74177419D01*
X141803447Y-74177419D02*
X141898685Y-74225038D01*
X141898685Y-74225038D02*
X141946304Y-74272657D01*
X141946304Y-74272657D02*
X141993923Y-74367895D01*
X141993923Y-74367895D02*
X141993923Y-74463133D01*
X141993923Y-74463133D02*
X141946304Y-74605990D01*
X141946304Y-74605990D02*
X141374876Y-75177419D01*
X141374876Y-75177419D02*
X141993923Y-75177419D01*
X189666666Y-57574819D02*
X189666666Y-58289104D01*
X189666666Y-58289104D02*
X189619047Y-58431961D01*
X189619047Y-58431961D02*
X189523809Y-58527200D01*
X189523809Y-58527200D02*
X189380952Y-58574819D01*
X189380952Y-58574819D02*
X189285714Y-58574819D01*
X190571428Y-57908152D02*
X190571428Y-58574819D01*
X190333333Y-57527200D02*
X190095238Y-58241485D01*
X190095238Y-58241485D02*
X190714285Y-58241485D01*
X122640833Y-71942319D02*
X122307500Y-71466128D01*
X122069405Y-71942319D02*
X122069405Y-70942319D01*
X122069405Y-70942319D02*
X122450357Y-70942319D01*
X122450357Y-70942319D02*
X122545595Y-70989938D01*
X122545595Y-70989938D02*
X122593214Y-71037557D01*
X122593214Y-71037557D02*
X122640833Y-71132795D01*
X122640833Y-71132795D02*
X122640833Y-71275652D01*
X122640833Y-71275652D02*
X122593214Y-71370890D01*
X122593214Y-71370890D02*
X122545595Y-71418509D01*
X122545595Y-71418509D02*
X122450357Y-71466128D01*
X122450357Y-71466128D02*
X122069405Y-71466128D01*
X123497976Y-70942319D02*
X123307500Y-70942319D01*
X123307500Y-70942319D02*
X123212262Y-70989938D01*
X123212262Y-70989938D02*
X123164643Y-71037557D01*
X123164643Y-71037557D02*
X123069405Y-71180414D01*
X123069405Y-71180414D02*
X123021786Y-71370890D01*
X123021786Y-71370890D02*
X123021786Y-71751842D01*
X123021786Y-71751842D02*
X123069405Y-71847080D01*
X123069405Y-71847080D02*
X123117024Y-71894700D01*
X123117024Y-71894700D02*
X123212262Y-71942319D01*
X123212262Y-71942319D02*
X123402738Y-71942319D01*
X123402738Y-71942319D02*
X123497976Y-71894700D01*
X123497976Y-71894700D02*
X123545595Y-71847080D01*
X123545595Y-71847080D02*
X123593214Y-71751842D01*
X123593214Y-71751842D02*
X123593214Y-71513747D01*
X123593214Y-71513747D02*
X123545595Y-71418509D01*
X123545595Y-71418509D02*
X123497976Y-71370890D01*
X123497976Y-71370890D02*
X123402738Y-71323271D01*
X123402738Y-71323271D02*
X123212262Y-71323271D01*
X123212262Y-71323271D02*
X123117024Y-71370890D01*
X123117024Y-71370890D02*
X123069405Y-71418509D01*
X123069405Y-71418509D02*
X123021786Y-71513747D01*
X141920933Y-60754419D02*
X141587600Y-60278228D01*
X141349505Y-60754419D02*
X141349505Y-59754419D01*
X141349505Y-59754419D02*
X141730457Y-59754419D01*
X141730457Y-59754419D02*
X141825695Y-59802038D01*
X141825695Y-59802038D02*
X141873314Y-59849657D01*
X141873314Y-59849657D02*
X141920933Y-59944895D01*
X141920933Y-59944895D02*
X141920933Y-60087752D01*
X141920933Y-60087752D02*
X141873314Y-60182990D01*
X141873314Y-60182990D02*
X141825695Y-60230609D01*
X141825695Y-60230609D02*
X141730457Y-60278228D01*
X141730457Y-60278228D02*
X141349505Y-60278228D01*
X142778076Y-60087752D02*
X142778076Y-60754419D01*
X142539981Y-59706800D02*
X142301886Y-60421085D01*
X142301886Y-60421085D02*
X142920933Y-60421085D01*
X193476666Y-57574819D02*
X193476666Y-58289104D01*
X193476666Y-58289104D02*
X193429047Y-58431961D01*
X193429047Y-58431961D02*
X193333809Y-58527200D01*
X193333809Y-58527200D02*
X193190952Y-58574819D01*
X193190952Y-58574819D02*
X193095714Y-58574819D01*
X193857619Y-57574819D02*
X194476666Y-57574819D01*
X194476666Y-57574819D02*
X194143333Y-57955771D01*
X194143333Y-57955771D02*
X194286190Y-57955771D01*
X194286190Y-57955771D02*
X194381428Y-58003390D01*
X194381428Y-58003390D02*
X194429047Y-58051009D01*
X194429047Y-58051009D02*
X194476666Y-58146247D01*
X194476666Y-58146247D02*
X194476666Y-58384342D01*
X194476666Y-58384342D02*
X194429047Y-58479580D01*
X194429047Y-58479580D02*
X194381428Y-58527200D01*
X194381428Y-58527200D02*
X194286190Y-58574819D01*
X194286190Y-58574819D02*
X194000476Y-58574819D01*
X194000476Y-58574819D02*
X193905238Y-58527200D01*
X193905238Y-58527200D02*
X193857619Y-58479580D01*
X112306666Y-56914819D02*
X112306666Y-57629104D01*
X112306666Y-57629104D02*
X112259047Y-57771961D01*
X112259047Y-57771961D02*
X112163809Y-57867200D01*
X112163809Y-57867200D02*
X112020952Y-57914819D01*
X112020952Y-57914819D02*
X111925714Y-57914819D01*
X113211428Y-56914819D02*
X113020952Y-56914819D01*
X113020952Y-56914819D02*
X112925714Y-56962438D01*
X112925714Y-56962438D02*
X112878095Y-57010057D01*
X112878095Y-57010057D02*
X112782857Y-57152914D01*
X112782857Y-57152914D02*
X112735238Y-57343390D01*
X112735238Y-57343390D02*
X112735238Y-57724342D01*
X112735238Y-57724342D02*
X112782857Y-57819580D01*
X112782857Y-57819580D02*
X112830476Y-57867200D01*
X112830476Y-57867200D02*
X112925714Y-57914819D01*
X112925714Y-57914819D02*
X113116190Y-57914819D01*
X113116190Y-57914819D02*
X113211428Y-57867200D01*
X113211428Y-57867200D02*
X113259047Y-57819580D01*
X113259047Y-57819580D02*
X113306666Y-57724342D01*
X113306666Y-57724342D02*
X113306666Y-57486247D01*
X113306666Y-57486247D02*
X113259047Y-57391009D01*
X113259047Y-57391009D02*
X113211428Y-57343390D01*
X113211428Y-57343390D02*
X113116190Y-57295771D01*
X113116190Y-57295771D02*
X112925714Y-57295771D01*
X112925714Y-57295771D02*
X112830476Y-57343390D01*
X112830476Y-57343390D02*
X112782857Y-57391009D01*
X112782857Y-57391009D02*
X112735238Y-57486247D01*
X161834533Y-78661419D02*
X161501200Y-78185228D01*
X161263105Y-78661419D02*
X161263105Y-77661419D01*
X161263105Y-77661419D02*
X161644057Y-77661419D01*
X161644057Y-77661419D02*
X161739295Y-77709038D01*
X161739295Y-77709038D02*
X161786914Y-77756657D01*
X161786914Y-77756657D02*
X161834533Y-77851895D01*
X161834533Y-77851895D02*
X161834533Y-77994752D01*
X161834533Y-77994752D02*
X161786914Y-78089990D01*
X161786914Y-78089990D02*
X161739295Y-78137609D01*
X161739295Y-78137609D02*
X161644057Y-78185228D01*
X161644057Y-78185228D02*
X161263105Y-78185228D01*
X162215486Y-77756657D02*
X162263105Y-77709038D01*
X162263105Y-77709038D02*
X162358343Y-77661419D01*
X162358343Y-77661419D02*
X162596438Y-77661419D01*
X162596438Y-77661419D02*
X162691676Y-77709038D01*
X162691676Y-77709038D02*
X162739295Y-77756657D01*
X162739295Y-77756657D02*
X162786914Y-77851895D01*
X162786914Y-77851895D02*
X162786914Y-77947133D01*
X162786914Y-77947133D02*
X162739295Y-78089990D01*
X162739295Y-78089990D02*
X162167867Y-78661419D01*
X162167867Y-78661419D02*
X162786914Y-78661419D01*
X122703333Y-65784819D02*
X122370000Y-65308628D01*
X122131905Y-65784819D02*
X122131905Y-64784819D01*
X122131905Y-64784819D02*
X122512857Y-64784819D01*
X122512857Y-64784819D02*
X122608095Y-64832438D01*
X122608095Y-64832438D02*
X122655714Y-64880057D01*
X122655714Y-64880057D02*
X122703333Y-64975295D01*
X122703333Y-64975295D02*
X122703333Y-65118152D01*
X122703333Y-65118152D02*
X122655714Y-65213390D01*
X122655714Y-65213390D02*
X122608095Y-65261009D01*
X122608095Y-65261009D02*
X122512857Y-65308628D01*
X122512857Y-65308628D02*
X122131905Y-65308628D01*
X123274762Y-65213390D02*
X123179524Y-65165771D01*
X123179524Y-65165771D02*
X123131905Y-65118152D01*
X123131905Y-65118152D02*
X123084286Y-65022914D01*
X123084286Y-65022914D02*
X123084286Y-64975295D01*
X123084286Y-64975295D02*
X123131905Y-64880057D01*
X123131905Y-64880057D02*
X123179524Y-64832438D01*
X123179524Y-64832438D02*
X123274762Y-64784819D01*
X123274762Y-64784819D02*
X123465238Y-64784819D01*
X123465238Y-64784819D02*
X123560476Y-64832438D01*
X123560476Y-64832438D02*
X123608095Y-64880057D01*
X123608095Y-64880057D02*
X123655714Y-64975295D01*
X123655714Y-64975295D02*
X123655714Y-65022914D01*
X123655714Y-65022914D02*
X123608095Y-65118152D01*
X123608095Y-65118152D02*
X123560476Y-65165771D01*
X123560476Y-65165771D02*
X123465238Y-65213390D01*
X123465238Y-65213390D02*
X123274762Y-65213390D01*
X123274762Y-65213390D02*
X123179524Y-65261009D01*
X123179524Y-65261009D02*
X123131905Y-65308628D01*
X123131905Y-65308628D02*
X123084286Y-65403866D01*
X123084286Y-65403866D02*
X123084286Y-65594342D01*
X123084286Y-65594342D02*
X123131905Y-65689580D01*
X123131905Y-65689580D02*
X123179524Y-65737200D01*
X123179524Y-65737200D02*
X123274762Y-65784819D01*
X123274762Y-65784819D02*
X123465238Y-65784819D01*
X123465238Y-65784819D02*
X123560476Y-65737200D01*
X123560476Y-65737200D02*
X123608095Y-65689580D01*
X123608095Y-65689580D02*
X123655714Y-65594342D01*
X123655714Y-65594342D02*
X123655714Y-65403866D01*
X123655714Y-65403866D02*
X123608095Y-65308628D01*
X123608095Y-65308628D02*
X123560476Y-65261009D01*
X123560476Y-65261009D02*
X123465238Y-65213390D01*
X140219133Y-87424419D02*
X139885800Y-86948228D01*
X139647705Y-87424419D02*
X139647705Y-86424419D01*
X139647705Y-86424419D02*
X140028657Y-86424419D01*
X140028657Y-86424419D02*
X140123895Y-86472038D01*
X140123895Y-86472038D02*
X140171514Y-86519657D01*
X140171514Y-86519657D02*
X140219133Y-86614895D01*
X140219133Y-86614895D02*
X140219133Y-86757752D01*
X140219133Y-86757752D02*
X140171514Y-86852990D01*
X140171514Y-86852990D02*
X140123895Y-86900609D01*
X140123895Y-86900609D02*
X140028657Y-86948228D01*
X140028657Y-86948228D02*
X139647705Y-86948228D01*
X141171514Y-87424419D02*
X140600086Y-87424419D01*
X140885800Y-87424419D02*
X140885800Y-86424419D01*
X140885800Y-86424419D02*
X140790562Y-86567276D01*
X140790562Y-86567276D02*
X140695324Y-86662514D01*
X140695324Y-86662514D02*
X140600086Y-86710133D01*
X122743333Y-63824819D02*
X122410000Y-63348628D01*
X122171905Y-63824819D02*
X122171905Y-62824819D01*
X122171905Y-62824819D02*
X122552857Y-62824819D01*
X122552857Y-62824819D02*
X122648095Y-62872438D01*
X122648095Y-62872438D02*
X122695714Y-62920057D01*
X122695714Y-62920057D02*
X122743333Y-63015295D01*
X122743333Y-63015295D02*
X122743333Y-63158152D01*
X122743333Y-63158152D02*
X122695714Y-63253390D01*
X122695714Y-63253390D02*
X122648095Y-63301009D01*
X122648095Y-63301009D02*
X122552857Y-63348628D01*
X122552857Y-63348628D02*
X122171905Y-63348628D01*
X123076667Y-62824819D02*
X123743333Y-62824819D01*
X123743333Y-62824819D02*
X123314762Y-63824819D01*
X162875933Y-60754419D02*
X162542600Y-60278228D01*
X162304505Y-60754419D02*
X162304505Y-59754419D01*
X162304505Y-59754419D02*
X162685457Y-59754419D01*
X162685457Y-59754419D02*
X162780695Y-59802038D01*
X162780695Y-59802038D02*
X162828314Y-59849657D01*
X162828314Y-59849657D02*
X162875933Y-59944895D01*
X162875933Y-59944895D02*
X162875933Y-60087752D01*
X162875933Y-60087752D02*
X162828314Y-60182990D01*
X162828314Y-60182990D02*
X162780695Y-60230609D01*
X162780695Y-60230609D02*
X162685457Y-60278228D01*
X162685457Y-60278228D02*
X162304505Y-60278228D01*
X163209267Y-59754419D02*
X163828314Y-59754419D01*
X163828314Y-59754419D02*
X163494981Y-60135371D01*
X163494981Y-60135371D02*
X163637838Y-60135371D01*
X163637838Y-60135371D02*
X163733076Y-60182990D01*
X163733076Y-60182990D02*
X163780695Y-60230609D01*
X163780695Y-60230609D02*
X163828314Y-60325847D01*
X163828314Y-60325847D02*
X163828314Y-60563942D01*
X163828314Y-60563942D02*
X163780695Y-60659180D01*
X163780695Y-60659180D02*
X163733076Y-60706800D01*
X163733076Y-60706800D02*
X163637838Y-60754419D01*
X163637838Y-60754419D02*
X163352124Y-60754419D01*
X163352124Y-60754419D02*
X163256886Y-60706800D01*
X163256886Y-60706800D02*
X163209267Y-60659180D01*
X152167866Y-54271019D02*
X152167866Y-54985304D01*
X152167866Y-54985304D02*
X152120247Y-55128161D01*
X152120247Y-55128161D02*
X152025009Y-55223400D01*
X152025009Y-55223400D02*
X151882152Y-55271019D01*
X151882152Y-55271019D02*
X151786914Y-55271019D01*
X153167866Y-55271019D02*
X152596438Y-55271019D01*
X152882152Y-55271019D02*
X152882152Y-54271019D01*
X152882152Y-54271019D02*
X152786914Y-54413876D01*
X152786914Y-54413876D02*
X152691676Y-54509114D01*
X152691676Y-54509114D02*
X152596438Y-54556733D01*
X137805833Y-58029580D02*
X137758214Y-58077200D01*
X137758214Y-58077200D02*
X137615357Y-58124819D01*
X137615357Y-58124819D02*
X137520119Y-58124819D01*
X137520119Y-58124819D02*
X137377262Y-58077200D01*
X137377262Y-58077200D02*
X137282024Y-57981961D01*
X137282024Y-57981961D02*
X137234405Y-57886723D01*
X137234405Y-57886723D02*
X137186786Y-57696247D01*
X137186786Y-57696247D02*
X137186786Y-57553390D01*
X137186786Y-57553390D02*
X137234405Y-57362914D01*
X137234405Y-57362914D02*
X137282024Y-57267676D01*
X137282024Y-57267676D02*
X137377262Y-57172438D01*
X137377262Y-57172438D02*
X137520119Y-57124819D01*
X137520119Y-57124819D02*
X137615357Y-57124819D01*
X137615357Y-57124819D02*
X137758214Y-57172438D01*
X137758214Y-57172438D02*
X137805833Y-57220057D01*
X138377262Y-57553390D02*
X138282024Y-57505771D01*
X138282024Y-57505771D02*
X138234405Y-57458152D01*
X138234405Y-57458152D02*
X138186786Y-57362914D01*
X138186786Y-57362914D02*
X138186786Y-57315295D01*
X138186786Y-57315295D02*
X138234405Y-57220057D01*
X138234405Y-57220057D02*
X138282024Y-57172438D01*
X138282024Y-57172438D02*
X138377262Y-57124819D01*
X138377262Y-57124819D02*
X138567738Y-57124819D01*
X138567738Y-57124819D02*
X138662976Y-57172438D01*
X138662976Y-57172438D02*
X138710595Y-57220057D01*
X138710595Y-57220057D02*
X138758214Y-57315295D01*
X138758214Y-57315295D02*
X138758214Y-57362914D01*
X138758214Y-57362914D02*
X138710595Y-57458152D01*
X138710595Y-57458152D02*
X138662976Y-57505771D01*
X138662976Y-57505771D02*
X138567738Y-57553390D01*
X138567738Y-57553390D02*
X138377262Y-57553390D01*
X138377262Y-57553390D02*
X138282024Y-57601009D01*
X138282024Y-57601009D02*
X138234405Y-57648628D01*
X138234405Y-57648628D02*
X138186786Y-57743866D01*
X138186786Y-57743866D02*
X138186786Y-57934342D01*
X138186786Y-57934342D02*
X138234405Y-58029580D01*
X138234405Y-58029580D02*
X138282024Y-58077200D01*
X138282024Y-58077200D02*
X138377262Y-58124819D01*
X138377262Y-58124819D02*
X138567738Y-58124819D01*
X138567738Y-58124819D02*
X138662976Y-58077200D01*
X138662976Y-58077200D02*
X138710595Y-58029580D01*
X138710595Y-58029580D02*
X138758214Y-57934342D01*
X138758214Y-57934342D02*
X138758214Y-57743866D01*
X138758214Y-57743866D02*
X138710595Y-57648628D01*
X138710595Y-57648628D02*
X138662976Y-57601009D01*
X138662976Y-57601009D02*
X138567738Y-57553390D01*
X137753333Y-60104819D02*
X137420000Y-59628628D01*
X137181905Y-60104819D02*
X137181905Y-59104819D01*
X137181905Y-59104819D02*
X137562857Y-59104819D01*
X137562857Y-59104819D02*
X137658095Y-59152438D01*
X137658095Y-59152438D02*
X137705714Y-59200057D01*
X137705714Y-59200057D02*
X137753333Y-59295295D01*
X137753333Y-59295295D02*
X137753333Y-59438152D01*
X137753333Y-59438152D02*
X137705714Y-59533390D01*
X137705714Y-59533390D02*
X137658095Y-59581009D01*
X137658095Y-59581009D02*
X137562857Y-59628628D01*
X137562857Y-59628628D02*
X137181905Y-59628628D01*
X138658095Y-59104819D02*
X138181905Y-59104819D01*
X138181905Y-59104819D02*
X138134286Y-59581009D01*
X138134286Y-59581009D02*
X138181905Y-59533390D01*
X138181905Y-59533390D02*
X138277143Y-59485771D01*
X138277143Y-59485771D02*
X138515238Y-59485771D01*
X138515238Y-59485771D02*
X138610476Y-59533390D01*
X138610476Y-59533390D02*
X138658095Y-59581009D01*
X138658095Y-59581009D02*
X138705714Y-59676247D01*
X138705714Y-59676247D02*
X138705714Y-59914342D01*
X138705714Y-59914342D02*
X138658095Y-60009580D01*
X138658095Y-60009580D02*
X138610476Y-60057200D01*
X138610476Y-60057200D02*
X138515238Y-60104819D01*
X138515238Y-60104819D02*
X138277143Y-60104819D01*
X138277143Y-60104819D02*
X138181905Y-60057200D01*
X138181905Y-60057200D02*
X138134286Y-60009580D01*
D11*
X151007837Y-75208918D02*
X151007837Y-73938918D01*
X152338314Y-75087965D02*
X152277838Y-75148442D01*
X152277838Y-75148442D02*
X152096409Y-75208918D01*
X152096409Y-75208918D02*
X151975457Y-75208918D01*
X151975457Y-75208918D02*
X151794028Y-75148442D01*
X151794028Y-75148442D02*
X151673076Y-75027489D01*
X151673076Y-75027489D02*
X151612599Y-74906537D01*
X151612599Y-74906537D02*
X151552123Y-74664632D01*
X151552123Y-74664632D02*
X151552123Y-74483203D01*
X151552123Y-74483203D02*
X151612599Y-74241299D01*
X151612599Y-74241299D02*
X151673076Y-74120346D01*
X151673076Y-74120346D02*
X151794028Y-73999394D01*
X151794028Y-73999394D02*
X151975457Y-73938918D01*
X151975457Y-73938918D02*
X152096409Y-73938918D01*
X152096409Y-73938918D02*
X152277838Y-73999394D01*
X152277838Y-73999394D02*
X152338314Y-74059870D01*
X153547838Y-75208918D02*
X152822123Y-75208918D01*
X153184980Y-75208918D02*
X153184980Y-73938918D01*
X153184980Y-73938918D02*
X153064028Y-74120346D01*
X153064028Y-74120346D02*
X152943076Y-74241299D01*
X152943076Y-74241299D02*
X152822123Y-74301775D01*
X102446666Y-68003842D02*
X102628095Y-68064318D01*
X102628095Y-68064318D02*
X102930476Y-68064318D01*
X102930476Y-68064318D02*
X103051428Y-68003842D01*
X103051428Y-68003842D02*
X103111904Y-67943365D01*
X103111904Y-67943365D02*
X103172381Y-67822413D01*
X103172381Y-67822413D02*
X103172381Y-67701461D01*
X103172381Y-67701461D02*
X103111904Y-67580508D01*
X103111904Y-67580508D02*
X103051428Y-67520032D01*
X103051428Y-67520032D02*
X102930476Y-67459556D01*
X102930476Y-67459556D02*
X102688571Y-67399080D01*
X102688571Y-67399080D02*
X102567619Y-67338603D01*
X102567619Y-67338603D02*
X102507142Y-67278127D01*
X102507142Y-67278127D02*
X102446666Y-67157175D01*
X102446666Y-67157175D02*
X102446666Y-67036222D01*
X102446666Y-67036222D02*
X102507142Y-66915270D01*
X102507142Y-66915270D02*
X102567619Y-66854794D01*
X102567619Y-66854794D02*
X102688571Y-66794318D01*
X102688571Y-66794318D02*
X102990952Y-66794318D01*
X102990952Y-66794318D02*
X103172381Y-66854794D01*
X103595714Y-66794318D02*
X103898095Y-68064318D01*
X103898095Y-68064318D02*
X104140000Y-67157175D01*
X104140000Y-67157175D02*
X104381905Y-68064318D01*
X104381905Y-68064318D02*
X104684286Y-66794318D01*
X105107619Y-66915270D02*
X105168095Y-66854794D01*
X105168095Y-66854794D02*
X105289048Y-66794318D01*
X105289048Y-66794318D02*
X105591429Y-66794318D01*
X105591429Y-66794318D02*
X105712381Y-66854794D01*
X105712381Y-66854794D02*
X105772857Y-66915270D01*
X105772857Y-66915270D02*
X105833334Y-67036222D01*
X105833334Y-67036222D02*
X105833334Y-67157175D01*
X105833334Y-67157175D02*
X105772857Y-67338603D01*
X105772857Y-67338603D02*
X105047143Y-68064318D01*
X105047143Y-68064318D02*
X105833334Y-68064318D01*
X111943866Y-77503442D02*
X112125295Y-77563918D01*
X112125295Y-77563918D02*
X112427676Y-77563918D01*
X112427676Y-77563918D02*
X112548628Y-77503442D01*
X112548628Y-77503442D02*
X112609104Y-77442965D01*
X112609104Y-77442965D02*
X112669581Y-77322013D01*
X112669581Y-77322013D02*
X112669581Y-77201061D01*
X112669581Y-77201061D02*
X112609104Y-77080108D01*
X112609104Y-77080108D02*
X112548628Y-77019632D01*
X112548628Y-77019632D02*
X112427676Y-76959156D01*
X112427676Y-76959156D02*
X112185771Y-76898680D01*
X112185771Y-76898680D02*
X112064819Y-76838203D01*
X112064819Y-76838203D02*
X112004342Y-76777727D01*
X112004342Y-76777727D02*
X111943866Y-76656775D01*
X111943866Y-76656775D02*
X111943866Y-76535822D01*
X111943866Y-76535822D02*
X112004342Y-76414870D01*
X112004342Y-76414870D02*
X112064819Y-76354394D01*
X112064819Y-76354394D02*
X112185771Y-76293918D01*
X112185771Y-76293918D02*
X112488152Y-76293918D01*
X112488152Y-76293918D02*
X112669581Y-76354394D01*
X113092914Y-76293918D02*
X113395295Y-77563918D01*
X113395295Y-77563918D02*
X113637200Y-76656775D01*
X113637200Y-76656775D02*
X113879105Y-77563918D01*
X113879105Y-77563918D02*
X114181486Y-76293918D01*
X115270057Y-76293918D02*
X114665295Y-76293918D01*
X114665295Y-76293918D02*
X114604819Y-76898680D01*
X114604819Y-76898680D02*
X114665295Y-76838203D01*
X114665295Y-76838203D02*
X114786248Y-76777727D01*
X114786248Y-76777727D02*
X115088629Y-76777727D01*
X115088629Y-76777727D02*
X115209581Y-76838203D01*
X115209581Y-76838203D02*
X115270057Y-76898680D01*
X115270057Y-76898680D02*
X115330534Y-77019632D01*
X115330534Y-77019632D02*
X115330534Y-77322013D01*
X115330534Y-77322013D02*
X115270057Y-77442965D01*
X115270057Y-77442965D02*
X115209581Y-77503442D01*
X115209581Y-77503442D02*
X115088629Y-77563918D01*
X115088629Y-77563918D02*
X114786248Y-77563918D01*
X114786248Y-77563918D02*
X114665295Y-77503442D01*
X114665295Y-77503442D02*
X114604819Y-77442965D01*
X128945918Y-55688790D02*
X128945918Y-56293552D01*
X128945918Y-56293552D02*
X127675918Y-56293552D01*
X128280680Y-55265457D02*
X128280680Y-54842123D01*
X128945918Y-54660695D02*
X128945918Y-55265457D01*
X128945918Y-55265457D02*
X127675918Y-55265457D01*
X127675918Y-55265457D02*
X127675918Y-54660695D01*
X128945918Y-54116409D02*
X127675918Y-54116409D01*
X127675918Y-54116409D02*
X127675918Y-53814028D01*
X127675918Y-53814028D02*
X127736394Y-53632599D01*
X127736394Y-53632599D02*
X127857346Y-53511647D01*
X127857346Y-53511647D02*
X127978299Y-53451170D01*
X127978299Y-53451170D02*
X128220203Y-53390694D01*
X128220203Y-53390694D02*
X128401632Y-53390694D01*
X128401632Y-53390694D02*
X128643537Y-53451170D01*
X128643537Y-53451170D02*
X128764489Y-53511647D01*
X128764489Y-53511647D02*
X128885442Y-53632599D01*
X128885442Y-53632599D02*
X128945918Y-53814028D01*
X128945918Y-53814028D02*
X128945918Y-54116409D01*
X128099251Y-52302123D02*
X128945918Y-52302123D01*
X127615442Y-52604504D02*
X128522584Y-52906885D01*
X128522584Y-52906885D02*
X128522584Y-52120694D01*
X160838642Y-56408019D02*
X160899118Y-56226590D01*
X160899118Y-56226590D02*
X160899118Y-55924209D01*
X160899118Y-55924209D02*
X160838642Y-55803257D01*
X160838642Y-55803257D02*
X160778165Y-55742781D01*
X160778165Y-55742781D02*
X160657213Y-55682304D01*
X160657213Y-55682304D02*
X160536261Y-55682304D01*
X160536261Y-55682304D02*
X160415308Y-55742781D01*
X160415308Y-55742781D02*
X160354832Y-55803257D01*
X160354832Y-55803257D02*
X160294356Y-55924209D01*
X160294356Y-55924209D02*
X160233880Y-56166114D01*
X160233880Y-56166114D02*
X160173403Y-56287066D01*
X160173403Y-56287066D02*
X160112927Y-56347543D01*
X160112927Y-56347543D02*
X159991975Y-56408019D01*
X159991975Y-56408019D02*
X159871022Y-56408019D01*
X159871022Y-56408019D02*
X159750070Y-56347543D01*
X159750070Y-56347543D02*
X159689594Y-56287066D01*
X159689594Y-56287066D02*
X159629118Y-56166114D01*
X159629118Y-56166114D02*
X159629118Y-55863733D01*
X159629118Y-55863733D02*
X159689594Y-55682304D01*
X159750070Y-55198495D02*
X159689594Y-55138019D01*
X159689594Y-55138019D02*
X159629118Y-55017066D01*
X159629118Y-55017066D02*
X159629118Y-54714685D01*
X159629118Y-54714685D02*
X159689594Y-54593733D01*
X159689594Y-54593733D02*
X159750070Y-54533257D01*
X159750070Y-54533257D02*
X159871022Y-54472780D01*
X159871022Y-54472780D02*
X159991975Y-54472780D01*
X159991975Y-54472780D02*
X160173403Y-54533257D01*
X160173403Y-54533257D02*
X160899118Y-55258971D01*
X160899118Y-55258971D02*
X160899118Y-54472780D01*
X137683518Y-55663390D02*
X137683518Y-56268152D01*
X137683518Y-56268152D02*
X136413518Y-56268152D01*
X137018280Y-55240057D02*
X137018280Y-54816723D01*
X137683518Y-54635295D02*
X137683518Y-55240057D01*
X137683518Y-55240057D02*
X136413518Y-55240057D01*
X136413518Y-55240057D02*
X136413518Y-54635295D01*
X137683518Y-54091009D02*
X136413518Y-54091009D01*
X136413518Y-54091009D02*
X136413518Y-53788628D01*
X136413518Y-53788628D02*
X136473994Y-53607199D01*
X136473994Y-53607199D02*
X136594946Y-53486247D01*
X136594946Y-53486247D02*
X136715899Y-53425770D01*
X136715899Y-53425770D02*
X136957803Y-53365294D01*
X136957803Y-53365294D02*
X137139232Y-53365294D01*
X137139232Y-53365294D02*
X137381137Y-53425770D01*
X137381137Y-53425770D02*
X137502089Y-53486247D01*
X137502089Y-53486247D02*
X137623042Y-53607199D01*
X137623042Y-53607199D02*
X137683518Y-53788628D01*
X137683518Y-53788628D02*
X137683518Y-54091009D01*
X137683518Y-52155770D02*
X137683518Y-52881485D01*
X137683518Y-52518628D02*
X136413518Y-52518628D01*
X136413518Y-52518628D02*
X136594946Y-52639580D01*
X136594946Y-52639580D02*
X136715899Y-52760532D01*
X136715899Y-52760532D02*
X136776375Y-52881485D01*
X121459171Y-73840865D02*
X121398695Y-73901342D01*
X121398695Y-73901342D02*
X121217266Y-73961818D01*
X121217266Y-73961818D02*
X121096314Y-73961818D01*
X121096314Y-73961818D02*
X120914885Y-73901342D01*
X120914885Y-73901342D02*
X120793933Y-73780389D01*
X120793933Y-73780389D02*
X120733456Y-73659437D01*
X120733456Y-73659437D02*
X120672980Y-73417532D01*
X120672980Y-73417532D02*
X120672980Y-73236103D01*
X120672980Y-73236103D02*
X120733456Y-72994199D01*
X120733456Y-72994199D02*
X120793933Y-72873246D01*
X120793933Y-72873246D02*
X120914885Y-72752294D01*
X120914885Y-72752294D02*
X121096314Y-72691818D01*
X121096314Y-72691818D02*
X121217266Y-72691818D01*
X121217266Y-72691818D02*
X121398695Y-72752294D01*
X121398695Y-72752294D02*
X121459171Y-72812770D01*
X122668695Y-73961818D02*
X121942980Y-73961818D01*
X122305837Y-73961818D02*
X122305837Y-72691818D01*
X122305837Y-72691818D02*
X122184885Y-72873246D01*
X122184885Y-72873246D02*
X122063933Y-72994199D01*
X122063933Y-72994199D02*
X121942980Y-73054675D01*
X123092028Y-72691818D02*
X123878219Y-72691818D01*
X123878219Y-72691818D02*
X123454885Y-73175627D01*
X123454885Y-73175627D02*
X123636314Y-73175627D01*
X123636314Y-73175627D02*
X123757266Y-73236103D01*
X123757266Y-73236103D02*
X123817742Y-73296580D01*
X123817742Y-73296580D02*
X123878219Y-73417532D01*
X123878219Y-73417532D02*
X123878219Y-73719913D01*
X123878219Y-73719913D02*
X123817742Y-73840865D01*
X123817742Y-73840865D02*
X123757266Y-73901342D01*
X123757266Y-73901342D02*
X123636314Y-73961818D01*
X123636314Y-73961818D02*
X123273457Y-73961818D01*
X123273457Y-73961818D02*
X123152504Y-73901342D01*
X123152504Y-73901342D02*
X123092028Y-73840865D01*
X125932505Y-100090718D02*
X126355838Y-101360718D01*
X126355838Y-101360718D02*
X126779172Y-100090718D01*
X127928219Y-101360718D02*
X127504885Y-100755956D01*
X127202504Y-101360718D02*
X127202504Y-100090718D01*
X127202504Y-100090718D02*
X127686314Y-100090718D01*
X127686314Y-100090718D02*
X127807266Y-100151194D01*
X127807266Y-100151194D02*
X127867743Y-100211670D01*
X127867743Y-100211670D02*
X127928219Y-100332622D01*
X127928219Y-100332622D02*
X127928219Y-100514051D01*
X127928219Y-100514051D02*
X127867743Y-100635003D01*
X127867743Y-100635003D02*
X127807266Y-100695480D01*
X127807266Y-100695480D02*
X127686314Y-100755956D01*
X127686314Y-100755956D02*
X127202504Y-100755956D01*
X129137743Y-101360718D02*
X128412028Y-101360718D01*
X128774885Y-101360718D02*
X128774885Y-100090718D01*
X128774885Y-100090718D02*
X128653933Y-100272146D01*
X128653933Y-100272146D02*
X128532981Y-100393099D01*
X128532981Y-100393099D02*
X128412028Y-100453575D01*
X137588171Y-67585965D02*
X137527695Y-67646442D01*
X137527695Y-67646442D02*
X137346266Y-67706918D01*
X137346266Y-67706918D02*
X137225314Y-67706918D01*
X137225314Y-67706918D02*
X137043885Y-67646442D01*
X137043885Y-67646442D02*
X136922933Y-67525489D01*
X136922933Y-67525489D02*
X136862456Y-67404537D01*
X136862456Y-67404537D02*
X136801980Y-67162632D01*
X136801980Y-67162632D02*
X136801980Y-66981203D01*
X136801980Y-66981203D02*
X136862456Y-66739299D01*
X136862456Y-66739299D02*
X136922933Y-66618346D01*
X136922933Y-66618346D02*
X137043885Y-66497394D01*
X137043885Y-66497394D02*
X137225314Y-66436918D01*
X137225314Y-66436918D02*
X137346266Y-66436918D01*
X137346266Y-66436918D02*
X137527695Y-66497394D01*
X137527695Y-66497394D02*
X137588171Y-66557870D01*
X138797695Y-67706918D02*
X138071980Y-67706918D01*
X138434837Y-67706918D02*
X138434837Y-66436918D01*
X138434837Y-66436918D02*
X138313885Y-66618346D01*
X138313885Y-66618346D02*
X138192933Y-66739299D01*
X138192933Y-66739299D02*
X138071980Y-66799775D01*
X140007219Y-67706918D02*
X139281504Y-67706918D01*
X139644361Y-67706918D02*
X139644361Y-66436918D01*
X139644361Y-66436918D02*
X139523409Y-66618346D01*
X139523409Y-66618346D02*
X139402457Y-66739299D01*
X139402457Y-66739299D02*
X139281504Y-66799775D01*
X134813318Y-55664390D02*
X134813318Y-56269152D01*
X134813318Y-56269152D02*
X133543318Y-56269152D01*
X134148080Y-55241057D02*
X134148080Y-54817723D01*
X134813318Y-54636295D02*
X134813318Y-55241057D01*
X134813318Y-55241057D02*
X133543318Y-55241057D01*
X133543318Y-55241057D02*
X133543318Y-54636295D01*
X134813318Y-54092009D02*
X133543318Y-54092009D01*
X133543318Y-54092009D02*
X133543318Y-53789628D01*
X133543318Y-53789628D02*
X133603794Y-53608199D01*
X133603794Y-53608199D02*
X133724746Y-53487247D01*
X133724746Y-53487247D02*
X133845699Y-53426770D01*
X133845699Y-53426770D02*
X134087603Y-53366294D01*
X134087603Y-53366294D02*
X134269032Y-53366294D01*
X134269032Y-53366294D02*
X134510937Y-53426770D01*
X134510937Y-53426770D02*
X134631889Y-53487247D01*
X134631889Y-53487247D02*
X134752842Y-53608199D01*
X134752842Y-53608199D02*
X134813318Y-53789628D01*
X134813318Y-53789628D02*
X134813318Y-54092009D01*
X133664270Y-52882485D02*
X133603794Y-52822009D01*
X133603794Y-52822009D02*
X133543318Y-52701056D01*
X133543318Y-52701056D02*
X133543318Y-52398675D01*
X133543318Y-52398675D02*
X133603794Y-52277723D01*
X133603794Y-52277723D02*
X133664270Y-52217247D01*
X133664270Y-52217247D02*
X133785222Y-52156770D01*
X133785222Y-52156770D02*
X133906175Y-52156770D01*
X133906175Y-52156770D02*
X134087603Y-52217247D01*
X134087603Y-52217247D02*
X134813318Y-52942961D01*
X134813318Y-52942961D02*
X134813318Y-52156770D01*
X126331133Y-77339165D02*
X126270657Y-77399642D01*
X126270657Y-77399642D02*
X126089228Y-77460118D01*
X126089228Y-77460118D02*
X125968276Y-77460118D01*
X125968276Y-77460118D02*
X125786847Y-77399642D01*
X125786847Y-77399642D02*
X125665895Y-77278689D01*
X125665895Y-77278689D02*
X125605418Y-77157737D01*
X125605418Y-77157737D02*
X125544942Y-76915832D01*
X125544942Y-76915832D02*
X125544942Y-76734403D01*
X125544942Y-76734403D02*
X125605418Y-76492499D01*
X125605418Y-76492499D02*
X125665895Y-76371546D01*
X125665895Y-76371546D02*
X125786847Y-76250594D01*
X125786847Y-76250594D02*
X125968276Y-76190118D01*
X125968276Y-76190118D02*
X126089228Y-76190118D01*
X126089228Y-76190118D02*
X126270657Y-76250594D01*
X126270657Y-76250594D02*
X126331133Y-76311070D01*
X127540657Y-77460118D02*
X126814942Y-77460118D01*
X127177799Y-77460118D02*
X127177799Y-76190118D01*
X127177799Y-76190118D02*
X127056847Y-76371546D01*
X127056847Y-76371546D02*
X126935895Y-76492499D01*
X126935895Y-76492499D02*
X126814942Y-76552975D01*
X141778965Y-54339066D02*
X141839442Y-54399542D01*
X141839442Y-54399542D02*
X141899918Y-54580971D01*
X141899918Y-54580971D02*
X141899918Y-54701923D01*
X141899918Y-54701923D02*
X141839442Y-54883352D01*
X141839442Y-54883352D02*
X141718489Y-55004304D01*
X141718489Y-55004304D02*
X141597537Y-55064781D01*
X141597537Y-55064781D02*
X141355632Y-55125257D01*
X141355632Y-55125257D02*
X141174203Y-55125257D01*
X141174203Y-55125257D02*
X140932299Y-55064781D01*
X140932299Y-55064781D02*
X140811346Y-55004304D01*
X140811346Y-55004304D02*
X140690394Y-54883352D01*
X140690394Y-54883352D02*
X140629918Y-54701923D01*
X140629918Y-54701923D02*
X140629918Y-54580971D01*
X140629918Y-54580971D02*
X140690394Y-54399542D01*
X140690394Y-54399542D02*
X140750870Y-54339066D01*
X140629918Y-53250495D02*
X140629918Y-53492400D01*
X140629918Y-53492400D02*
X140690394Y-53613352D01*
X140690394Y-53613352D02*
X140750870Y-53673828D01*
X140750870Y-53673828D02*
X140932299Y-53794781D01*
X140932299Y-53794781D02*
X141174203Y-53855257D01*
X141174203Y-53855257D02*
X141658013Y-53855257D01*
X141658013Y-53855257D02*
X141778965Y-53794781D01*
X141778965Y-53794781D02*
X141839442Y-53734304D01*
X141839442Y-53734304D02*
X141899918Y-53613352D01*
X141899918Y-53613352D02*
X141899918Y-53371447D01*
X141899918Y-53371447D02*
X141839442Y-53250495D01*
X141839442Y-53250495D02*
X141778965Y-53190019D01*
X141778965Y-53190019D02*
X141658013Y-53129542D01*
X141658013Y-53129542D02*
X141355632Y-53129542D01*
X141355632Y-53129542D02*
X141234680Y-53190019D01*
X141234680Y-53190019D02*
X141174203Y-53250495D01*
X141174203Y-53250495D02*
X141113727Y-53371447D01*
X141113727Y-53371447D02*
X141113727Y-53613352D01*
X141113727Y-53613352D02*
X141174203Y-53734304D01*
X141174203Y-53734304D02*
X141234680Y-53794781D01*
X141234680Y-53794781D02*
X141355632Y-53855257D01*
X198956666Y-77493842D02*
X199138095Y-77554318D01*
X199138095Y-77554318D02*
X199440476Y-77554318D01*
X199440476Y-77554318D02*
X199561428Y-77493842D01*
X199561428Y-77493842D02*
X199621904Y-77433365D01*
X199621904Y-77433365D02*
X199682381Y-77312413D01*
X199682381Y-77312413D02*
X199682381Y-77191461D01*
X199682381Y-77191461D02*
X199621904Y-77070508D01*
X199621904Y-77070508D02*
X199561428Y-77010032D01*
X199561428Y-77010032D02*
X199440476Y-76949556D01*
X199440476Y-76949556D02*
X199198571Y-76889080D01*
X199198571Y-76889080D02*
X199077619Y-76828603D01*
X199077619Y-76828603D02*
X199017142Y-76768127D01*
X199017142Y-76768127D02*
X198956666Y-76647175D01*
X198956666Y-76647175D02*
X198956666Y-76526222D01*
X198956666Y-76526222D02*
X199017142Y-76405270D01*
X199017142Y-76405270D02*
X199077619Y-76344794D01*
X199077619Y-76344794D02*
X199198571Y-76284318D01*
X199198571Y-76284318D02*
X199500952Y-76284318D01*
X199500952Y-76284318D02*
X199682381Y-76344794D01*
X200105714Y-76284318D02*
X200408095Y-77554318D01*
X200408095Y-77554318D02*
X200650000Y-76647175D01*
X200650000Y-76647175D02*
X200891905Y-77554318D01*
X200891905Y-77554318D02*
X201194286Y-76284318D01*
X202343334Y-77554318D02*
X201617619Y-77554318D01*
X201980476Y-77554318D02*
X201980476Y-76284318D01*
X201980476Y-76284318D02*
X201859524Y-76465746D01*
X201859524Y-76465746D02*
X201738572Y-76586699D01*
X201738572Y-76586699D02*
X201617619Y-76647175D01*
X140072533Y-84342365D02*
X140012057Y-84402842D01*
X140012057Y-84402842D02*
X139830628Y-84463318D01*
X139830628Y-84463318D02*
X139709676Y-84463318D01*
X139709676Y-84463318D02*
X139528247Y-84402842D01*
X139528247Y-84402842D02*
X139407295Y-84281889D01*
X139407295Y-84281889D02*
X139346818Y-84160937D01*
X139346818Y-84160937D02*
X139286342Y-83919032D01*
X139286342Y-83919032D02*
X139286342Y-83737603D01*
X139286342Y-83737603D02*
X139346818Y-83495699D01*
X139346818Y-83495699D02*
X139407295Y-83374746D01*
X139407295Y-83374746D02*
X139528247Y-83253794D01*
X139528247Y-83253794D02*
X139709676Y-83193318D01*
X139709676Y-83193318D02*
X139830628Y-83193318D01*
X139830628Y-83193318D02*
X140012057Y-83253794D01*
X140012057Y-83253794D02*
X140072533Y-83314270D01*
X141221580Y-83193318D02*
X140616818Y-83193318D01*
X140616818Y-83193318D02*
X140556342Y-83798080D01*
X140556342Y-83798080D02*
X140616818Y-83737603D01*
X140616818Y-83737603D02*
X140737771Y-83677127D01*
X140737771Y-83677127D02*
X141040152Y-83677127D01*
X141040152Y-83677127D02*
X141161104Y-83737603D01*
X141161104Y-83737603D02*
X141221580Y-83798080D01*
X141221580Y-83798080D02*
X141282057Y-83919032D01*
X141282057Y-83919032D02*
X141282057Y-84221413D01*
X141282057Y-84221413D02*
X141221580Y-84342365D01*
X141221580Y-84342365D02*
X141161104Y-84402842D01*
X141161104Y-84402842D02*
X141040152Y-84463318D01*
X141040152Y-84463318D02*
X140737771Y-84463318D01*
X140737771Y-84463318D02*
X140616818Y-84402842D01*
X140616818Y-84402842D02*
X140556342Y-84342365D01*
X137562771Y-65684965D02*
X137502295Y-65745442D01*
X137502295Y-65745442D02*
X137320866Y-65805918D01*
X137320866Y-65805918D02*
X137199914Y-65805918D01*
X137199914Y-65805918D02*
X137018485Y-65745442D01*
X137018485Y-65745442D02*
X136897533Y-65624489D01*
X136897533Y-65624489D02*
X136837056Y-65503537D01*
X136837056Y-65503537D02*
X136776580Y-65261632D01*
X136776580Y-65261632D02*
X136776580Y-65080203D01*
X136776580Y-65080203D02*
X136837056Y-64838299D01*
X136837056Y-64838299D02*
X136897533Y-64717346D01*
X136897533Y-64717346D02*
X137018485Y-64596394D01*
X137018485Y-64596394D02*
X137199914Y-64535918D01*
X137199914Y-64535918D02*
X137320866Y-64535918D01*
X137320866Y-64535918D02*
X137502295Y-64596394D01*
X137502295Y-64596394D02*
X137562771Y-64656870D01*
X138772295Y-65805918D02*
X138046580Y-65805918D01*
X138409437Y-65805918D02*
X138409437Y-64535918D01*
X138409437Y-64535918D02*
X138288485Y-64717346D01*
X138288485Y-64717346D02*
X138167533Y-64838299D01*
X138167533Y-64838299D02*
X138046580Y-64898775D01*
X139558485Y-64535918D02*
X139679438Y-64535918D01*
X139679438Y-64535918D02*
X139800390Y-64596394D01*
X139800390Y-64596394D02*
X139860866Y-64656870D01*
X139860866Y-64656870D02*
X139921342Y-64777822D01*
X139921342Y-64777822D02*
X139981819Y-65019727D01*
X139981819Y-65019727D02*
X139981819Y-65322108D01*
X139981819Y-65322108D02*
X139921342Y-65564013D01*
X139921342Y-65564013D02*
X139860866Y-65684965D01*
X139860866Y-65684965D02*
X139800390Y-65745442D01*
X139800390Y-65745442D02*
X139679438Y-65805918D01*
X139679438Y-65805918D02*
X139558485Y-65805918D01*
X139558485Y-65805918D02*
X139437533Y-65745442D01*
X139437533Y-65745442D02*
X139377057Y-65684965D01*
X139377057Y-65684965D02*
X139316580Y-65564013D01*
X139316580Y-65564013D02*
X139256104Y-65322108D01*
X139256104Y-65322108D02*
X139256104Y-65019727D01*
X139256104Y-65019727D02*
X139316580Y-64777822D01*
X139316580Y-64777822D02*
X139377057Y-64656870D01*
X139377057Y-64656870D02*
X139437533Y-64596394D01*
X139437533Y-64596394D02*
X139558485Y-64535918D01*
X150946666Y-99093842D02*
X151128095Y-99154318D01*
X151128095Y-99154318D02*
X151430476Y-99154318D01*
X151430476Y-99154318D02*
X151551428Y-99093842D01*
X151551428Y-99093842D02*
X151611904Y-99033365D01*
X151611904Y-99033365D02*
X151672381Y-98912413D01*
X151672381Y-98912413D02*
X151672381Y-98791461D01*
X151672381Y-98791461D02*
X151611904Y-98670508D01*
X151611904Y-98670508D02*
X151551428Y-98610032D01*
X151551428Y-98610032D02*
X151430476Y-98549556D01*
X151430476Y-98549556D02*
X151188571Y-98489080D01*
X151188571Y-98489080D02*
X151067619Y-98428603D01*
X151067619Y-98428603D02*
X151007142Y-98368127D01*
X151007142Y-98368127D02*
X150946666Y-98247175D01*
X150946666Y-98247175D02*
X150946666Y-98126222D01*
X150946666Y-98126222D02*
X151007142Y-98005270D01*
X151007142Y-98005270D02*
X151067619Y-97944794D01*
X151067619Y-97944794D02*
X151188571Y-97884318D01*
X151188571Y-97884318D02*
X151490952Y-97884318D01*
X151490952Y-97884318D02*
X151672381Y-97944794D01*
X152095714Y-97884318D02*
X152398095Y-99154318D01*
X152398095Y-99154318D02*
X152640000Y-98247175D01*
X152640000Y-98247175D02*
X152881905Y-99154318D01*
X152881905Y-99154318D02*
X153184286Y-97884318D01*
X154212381Y-97884318D02*
X153970476Y-97884318D01*
X153970476Y-97884318D02*
X153849524Y-97944794D01*
X153849524Y-97944794D02*
X153789048Y-98005270D01*
X153789048Y-98005270D02*
X153668095Y-98186699D01*
X153668095Y-98186699D02*
X153607619Y-98428603D01*
X153607619Y-98428603D02*
X153607619Y-98912413D01*
X153607619Y-98912413D02*
X153668095Y-99033365D01*
X153668095Y-99033365D02*
X153728572Y-99093842D01*
X153728572Y-99093842D02*
X153849524Y-99154318D01*
X153849524Y-99154318D02*
X154091429Y-99154318D01*
X154091429Y-99154318D02*
X154212381Y-99093842D01*
X154212381Y-99093842D02*
X154272857Y-99033365D01*
X154272857Y-99033365D02*
X154333334Y-98912413D01*
X154333334Y-98912413D02*
X154333334Y-98610032D01*
X154333334Y-98610032D02*
X154272857Y-98489080D01*
X154272857Y-98489080D02*
X154212381Y-98428603D01*
X154212381Y-98428603D02*
X154091429Y-98368127D01*
X154091429Y-98368127D02*
X153849524Y-98368127D01*
X153849524Y-98368127D02*
X153728572Y-98428603D01*
X153728572Y-98428603D02*
X153668095Y-98489080D01*
X153668095Y-98489080D02*
X153607619Y-98610032D01*
X102445466Y-86988242D02*
X102626895Y-87048718D01*
X102626895Y-87048718D02*
X102929276Y-87048718D01*
X102929276Y-87048718D02*
X103050228Y-86988242D01*
X103050228Y-86988242D02*
X103110704Y-86927765D01*
X103110704Y-86927765D02*
X103171181Y-86806813D01*
X103171181Y-86806813D02*
X103171181Y-86685861D01*
X103171181Y-86685861D02*
X103110704Y-86564908D01*
X103110704Y-86564908D02*
X103050228Y-86504432D01*
X103050228Y-86504432D02*
X102929276Y-86443956D01*
X102929276Y-86443956D02*
X102687371Y-86383480D01*
X102687371Y-86383480D02*
X102566419Y-86323003D01*
X102566419Y-86323003D02*
X102505942Y-86262527D01*
X102505942Y-86262527D02*
X102445466Y-86141575D01*
X102445466Y-86141575D02*
X102445466Y-86020622D01*
X102445466Y-86020622D02*
X102505942Y-85899670D01*
X102505942Y-85899670D02*
X102566419Y-85839194D01*
X102566419Y-85839194D02*
X102687371Y-85778718D01*
X102687371Y-85778718D02*
X102989752Y-85778718D01*
X102989752Y-85778718D02*
X103171181Y-85839194D01*
X103594514Y-85778718D02*
X103896895Y-87048718D01*
X103896895Y-87048718D02*
X104138800Y-86141575D01*
X104138800Y-86141575D02*
X104380705Y-87048718D01*
X104380705Y-87048718D02*
X104683086Y-85778718D01*
X105711181Y-86202051D02*
X105711181Y-87048718D01*
X105408800Y-85718242D02*
X105106419Y-86625384D01*
X105106419Y-86625384D02*
X105892610Y-86625384D01*
X126305733Y-75535765D02*
X126245257Y-75596242D01*
X126245257Y-75596242D02*
X126063828Y-75656718D01*
X126063828Y-75656718D02*
X125942876Y-75656718D01*
X125942876Y-75656718D02*
X125761447Y-75596242D01*
X125761447Y-75596242D02*
X125640495Y-75475289D01*
X125640495Y-75475289D02*
X125580018Y-75354337D01*
X125580018Y-75354337D02*
X125519542Y-75112432D01*
X125519542Y-75112432D02*
X125519542Y-74931003D01*
X125519542Y-74931003D02*
X125580018Y-74689099D01*
X125580018Y-74689099D02*
X125640495Y-74568146D01*
X125640495Y-74568146D02*
X125761447Y-74447194D01*
X125761447Y-74447194D02*
X125942876Y-74386718D01*
X125942876Y-74386718D02*
X126063828Y-74386718D01*
X126063828Y-74386718D02*
X126245257Y-74447194D01*
X126245257Y-74447194D02*
X126305733Y-74507670D01*
X126789542Y-74507670D02*
X126850018Y-74447194D01*
X126850018Y-74447194D02*
X126970971Y-74386718D01*
X126970971Y-74386718D02*
X127273352Y-74386718D01*
X127273352Y-74386718D02*
X127394304Y-74447194D01*
X127394304Y-74447194D02*
X127454780Y-74507670D01*
X127454780Y-74507670D02*
X127515257Y-74628622D01*
X127515257Y-74628622D02*
X127515257Y-74749575D01*
X127515257Y-74749575D02*
X127454780Y-74931003D01*
X127454780Y-74931003D02*
X126729066Y-75656718D01*
X126729066Y-75656718D02*
X127515257Y-75656718D01*
X130258333Y-67858918D02*
X129653571Y-67858918D01*
X129653571Y-67858918D02*
X129653571Y-66588918D01*
X131346905Y-67858918D02*
X130621190Y-67858918D01*
X130984047Y-67858918D02*
X130984047Y-66588918D01*
X130984047Y-66588918D02*
X130863095Y-66770346D01*
X130863095Y-66770346D02*
X130742143Y-66891299D01*
X130742143Y-66891299D02*
X130621190Y-66951775D01*
X151213809Y-107416318D02*
X150609047Y-107416318D01*
X150609047Y-107416318D02*
X150609047Y-106146318D01*
X151637142Y-106751080D02*
X152060476Y-106751080D01*
X152241904Y-107416318D02*
X151637142Y-107416318D01*
X151637142Y-107416318D02*
X151637142Y-106146318D01*
X151637142Y-106146318D02*
X152241904Y-106146318D01*
X152786190Y-107416318D02*
X152786190Y-106146318D01*
X152786190Y-106146318D02*
X153088571Y-106146318D01*
X153088571Y-106146318D02*
X153270000Y-106206794D01*
X153270000Y-106206794D02*
X153390952Y-106327746D01*
X153390952Y-106327746D02*
X153451429Y-106448699D01*
X153451429Y-106448699D02*
X153511905Y-106690603D01*
X153511905Y-106690603D02*
X153511905Y-106872032D01*
X153511905Y-106872032D02*
X153451429Y-107113937D01*
X153451429Y-107113937D02*
X153390952Y-107234889D01*
X153390952Y-107234889D02*
X153270000Y-107355842D01*
X153270000Y-107355842D02*
X153088571Y-107416318D01*
X153088571Y-107416318D02*
X152786190Y-107416318D01*
X154660952Y-106146318D02*
X154056190Y-106146318D01*
X154056190Y-106146318D02*
X153995714Y-106751080D01*
X153995714Y-106751080D02*
X154056190Y-106690603D01*
X154056190Y-106690603D02*
X154177143Y-106630127D01*
X154177143Y-106630127D02*
X154479524Y-106630127D01*
X154479524Y-106630127D02*
X154600476Y-106690603D01*
X154600476Y-106690603D02*
X154660952Y-106751080D01*
X154660952Y-106751080D02*
X154721429Y-106872032D01*
X154721429Y-106872032D02*
X154721429Y-107174413D01*
X154721429Y-107174413D02*
X154660952Y-107295365D01*
X154660952Y-107295365D02*
X154600476Y-107355842D01*
X154600476Y-107355842D02*
X154479524Y-107416318D01*
X154479524Y-107416318D02*
X154177143Y-107416318D01*
X154177143Y-107416318D02*
X154056190Y-107355842D01*
X154056190Y-107355842D02*
X153995714Y-107295365D01*
X125023637Y-61788318D02*
X125023637Y-60518318D01*
X126354114Y-61667365D02*
X126293638Y-61727842D01*
X126293638Y-61727842D02*
X126112209Y-61788318D01*
X126112209Y-61788318D02*
X125991257Y-61788318D01*
X125991257Y-61788318D02*
X125809828Y-61727842D01*
X125809828Y-61727842D02*
X125688876Y-61606889D01*
X125688876Y-61606889D02*
X125628399Y-61485937D01*
X125628399Y-61485937D02*
X125567923Y-61244032D01*
X125567923Y-61244032D02*
X125567923Y-61062603D01*
X125567923Y-61062603D02*
X125628399Y-60820699D01*
X125628399Y-60820699D02*
X125688876Y-60699746D01*
X125688876Y-60699746D02*
X125809828Y-60578794D01*
X125809828Y-60578794D02*
X125991257Y-60518318D01*
X125991257Y-60518318D02*
X126112209Y-60518318D01*
X126112209Y-60518318D02*
X126293638Y-60578794D01*
X126293638Y-60578794D02*
X126354114Y-60639270D01*
X126837923Y-60639270D02*
X126898399Y-60578794D01*
X126898399Y-60578794D02*
X127019352Y-60518318D01*
X127019352Y-60518318D02*
X127321733Y-60518318D01*
X127321733Y-60518318D02*
X127442685Y-60578794D01*
X127442685Y-60578794D02*
X127503161Y-60639270D01*
X127503161Y-60639270D02*
X127563638Y-60760222D01*
X127563638Y-60760222D02*
X127563638Y-60881175D01*
X127563638Y-60881175D02*
X127503161Y-61062603D01*
X127503161Y-61062603D02*
X126777447Y-61788318D01*
X126777447Y-61788318D02*
X127563638Y-61788318D01*
X176148305Y-99963718D02*
X176571638Y-101233718D01*
X176571638Y-101233718D02*
X176994972Y-99963718D01*
X178144019Y-101233718D02*
X177720685Y-100628956D01*
X177418304Y-101233718D02*
X177418304Y-99963718D01*
X177418304Y-99963718D02*
X177902114Y-99963718D01*
X177902114Y-99963718D02*
X178023066Y-100024194D01*
X178023066Y-100024194D02*
X178083543Y-100084670D01*
X178083543Y-100084670D02*
X178144019Y-100205622D01*
X178144019Y-100205622D02*
X178144019Y-100387051D01*
X178144019Y-100387051D02*
X178083543Y-100508003D01*
X178083543Y-100508003D02*
X178023066Y-100568480D01*
X178023066Y-100568480D02*
X177902114Y-100628956D01*
X177902114Y-100628956D02*
X177418304Y-100628956D01*
X178627828Y-100084670D02*
X178688304Y-100024194D01*
X178688304Y-100024194D02*
X178809257Y-99963718D01*
X178809257Y-99963718D02*
X179111638Y-99963718D01*
X179111638Y-99963718D02*
X179232590Y-100024194D01*
X179232590Y-100024194D02*
X179293066Y-100084670D01*
X179293066Y-100084670D02*
X179353543Y-100205622D01*
X179353543Y-100205622D02*
X179353543Y-100326575D01*
X179353543Y-100326575D02*
X179293066Y-100508003D01*
X179293066Y-100508003D02*
X178567352Y-101233718D01*
X178567352Y-101233718D02*
X179353543Y-101233718D01*
X162378365Y-87105066D02*
X162438842Y-87165542D01*
X162438842Y-87165542D02*
X162499318Y-87346971D01*
X162499318Y-87346971D02*
X162499318Y-87467923D01*
X162499318Y-87467923D02*
X162438842Y-87649352D01*
X162438842Y-87649352D02*
X162317889Y-87770304D01*
X162317889Y-87770304D02*
X162196937Y-87830781D01*
X162196937Y-87830781D02*
X161955032Y-87891257D01*
X161955032Y-87891257D02*
X161773603Y-87891257D01*
X161773603Y-87891257D02*
X161531699Y-87830781D01*
X161531699Y-87830781D02*
X161410746Y-87770304D01*
X161410746Y-87770304D02*
X161289794Y-87649352D01*
X161289794Y-87649352D02*
X161229318Y-87467923D01*
X161229318Y-87467923D02*
X161229318Y-87346971D01*
X161229318Y-87346971D02*
X161289794Y-87165542D01*
X161289794Y-87165542D02*
X161350270Y-87105066D01*
X161652651Y-86016495D02*
X162499318Y-86016495D01*
X161168842Y-86318876D02*
X162075984Y-86621257D01*
X162075984Y-86621257D02*
X162075984Y-85835066D01*
D12*
X185648695Y-59149019D02*
X185648695Y-59958542D01*
X185648695Y-59958542D02*
X185696314Y-60053780D01*
X185696314Y-60053780D02*
X185743933Y-60101400D01*
X185743933Y-60101400D02*
X185839171Y-60149019D01*
X185839171Y-60149019D02*
X186029647Y-60149019D01*
X186029647Y-60149019D02*
X186124885Y-60101400D01*
X186124885Y-60101400D02*
X186172504Y-60053780D01*
X186172504Y-60053780D02*
X186220123Y-59958542D01*
X186220123Y-59958542D02*
X186220123Y-59149019D01*
X187220123Y-60149019D02*
X186648695Y-60149019D01*
X186934409Y-60149019D02*
X186934409Y-59149019D01*
X186934409Y-59149019D02*
X186839171Y-59291876D01*
X186839171Y-59291876D02*
X186743933Y-59387114D01*
X186743933Y-59387114D02*
X186648695Y-59434733D01*
D11*
X145217642Y-56433419D02*
X145278118Y-56251990D01*
X145278118Y-56251990D02*
X145278118Y-55949609D01*
X145278118Y-55949609D02*
X145217642Y-55828657D01*
X145217642Y-55828657D02*
X145157165Y-55768181D01*
X145157165Y-55768181D02*
X145036213Y-55707704D01*
X145036213Y-55707704D02*
X144915261Y-55707704D01*
X144915261Y-55707704D02*
X144794308Y-55768181D01*
X144794308Y-55768181D02*
X144733832Y-55828657D01*
X144733832Y-55828657D02*
X144673356Y-55949609D01*
X144673356Y-55949609D02*
X144612880Y-56191514D01*
X144612880Y-56191514D02*
X144552403Y-56312466D01*
X144552403Y-56312466D02*
X144491927Y-56372943D01*
X144491927Y-56372943D02*
X144370975Y-56433419D01*
X144370975Y-56433419D02*
X144250022Y-56433419D01*
X144250022Y-56433419D02*
X144129070Y-56372943D01*
X144129070Y-56372943D02*
X144068594Y-56312466D01*
X144068594Y-56312466D02*
X144008118Y-56191514D01*
X144008118Y-56191514D02*
X144008118Y-55889133D01*
X144008118Y-55889133D02*
X144068594Y-55707704D01*
X145278118Y-54498180D02*
X145278118Y-55223895D01*
X145278118Y-54861038D02*
X144008118Y-54861038D01*
X144008118Y-54861038D02*
X144189546Y-54981990D01*
X144189546Y-54981990D02*
X144310499Y-55102942D01*
X144310499Y-55102942D02*
X144370975Y-55223895D01*
X131866918Y-55664390D02*
X131866918Y-56269152D01*
X131866918Y-56269152D02*
X130596918Y-56269152D01*
X131201680Y-55241057D02*
X131201680Y-54817723D01*
X131866918Y-54636295D02*
X131866918Y-55241057D01*
X131866918Y-55241057D02*
X130596918Y-55241057D01*
X130596918Y-55241057D02*
X130596918Y-54636295D01*
X131866918Y-54092009D02*
X130596918Y-54092009D01*
X130596918Y-54092009D02*
X130596918Y-53789628D01*
X130596918Y-53789628D02*
X130657394Y-53608199D01*
X130657394Y-53608199D02*
X130778346Y-53487247D01*
X130778346Y-53487247D02*
X130899299Y-53426770D01*
X130899299Y-53426770D02*
X131141203Y-53366294D01*
X131141203Y-53366294D02*
X131322632Y-53366294D01*
X131322632Y-53366294D02*
X131564537Y-53426770D01*
X131564537Y-53426770D02*
X131685489Y-53487247D01*
X131685489Y-53487247D02*
X131806442Y-53608199D01*
X131806442Y-53608199D02*
X131866918Y-53789628D01*
X131866918Y-53789628D02*
X131866918Y-54092009D01*
X130596918Y-52942961D02*
X130596918Y-52156770D01*
X130596918Y-52156770D02*
X131080727Y-52580104D01*
X131080727Y-52580104D02*
X131080727Y-52398675D01*
X131080727Y-52398675D02*
X131141203Y-52277723D01*
X131141203Y-52277723D02*
X131201680Y-52217247D01*
X131201680Y-52217247D02*
X131322632Y-52156770D01*
X131322632Y-52156770D02*
X131625013Y-52156770D01*
X131625013Y-52156770D02*
X131745965Y-52217247D01*
X131745965Y-52217247D02*
X131806442Y-52277723D01*
X131806442Y-52277723D02*
X131866918Y-52398675D01*
X131866918Y-52398675D02*
X131866918Y-52761532D01*
X131866918Y-52761532D02*
X131806442Y-52882485D01*
X131806442Y-52882485D02*
X131745965Y-52942961D01*
X137588171Y-69520365D02*
X137527695Y-69580842D01*
X137527695Y-69580842D02*
X137346266Y-69641318D01*
X137346266Y-69641318D02*
X137225314Y-69641318D01*
X137225314Y-69641318D02*
X137043885Y-69580842D01*
X137043885Y-69580842D02*
X136922933Y-69459889D01*
X136922933Y-69459889D02*
X136862456Y-69338937D01*
X136862456Y-69338937D02*
X136801980Y-69097032D01*
X136801980Y-69097032D02*
X136801980Y-68915603D01*
X136801980Y-68915603D02*
X136862456Y-68673699D01*
X136862456Y-68673699D02*
X136922933Y-68552746D01*
X136922933Y-68552746D02*
X137043885Y-68431794D01*
X137043885Y-68431794D02*
X137225314Y-68371318D01*
X137225314Y-68371318D02*
X137346266Y-68371318D01*
X137346266Y-68371318D02*
X137527695Y-68431794D01*
X137527695Y-68431794D02*
X137588171Y-68492270D01*
X138797695Y-69641318D02*
X138071980Y-69641318D01*
X138434837Y-69641318D02*
X138434837Y-68371318D01*
X138434837Y-68371318D02*
X138313885Y-68552746D01*
X138313885Y-68552746D02*
X138192933Y-68673699D01*
X138192933Y-68673699D02*
X138071980Y-68734175D01*
X139281504Y-68492270D02*
X139341980Y-68431794D01*
X139341980Y-68431794D02*
X139462933Y-68371318D01*
X139462933Y-68371318D02*
X139765314Y-68371318D01*
X139765314Y-68371318D02*
X139886266Y-68431794D01*
X139886266Y-68431794D02*
X139946742Y-68492270D01*
X139946742Y-68492270D02*
X140007219Y-68613222D01*
X140007219Y-68613222D02*
X140007219Y-68734175D01*
X140007219Y-68734175D02*
X139946742Y-68915603D01*
X139946742Y-68915603D02*
X139221028Y-69641318D01*
X139221028Y-69641318D02*
X140007219Y-69641318D01*
X164334165Y-87079666D02*
X164394642Y-87140142D01*
X164394642Y-87140142D02*
X164455118Y-87321571D01*
X164455118Y-87321571D02*
X164455118Y-87442523D01*
X164455118Y-87442523D02*
X164394642Y-87623952D01*
X164394642Y-87623952D02*
X164273689Y-87744904D01*
X164273689Y-87744904D02*
X164152737Y-87805381D01*
X164152737Y-87805381D02*
X163910832Y-87865857D01*
X163910832Y-87865857D02*
X163729403Y-87865857D01*
X163729403Y-87865857D02*
X163487499Y-87805381D01*
X163487499Y-87805381D02*
X163366546Y-87744904D01*
X163366546Y-87744904D02*
X163245594Y-87623952D01*
X163245594Y-87623952D02*
X163185118Y-87442523D01*
X163185118Y-87442523D02*
X163185118Y-87321571D01*
X163185118Y-87321571D02*
X163245594Y-87140142D01*
X163245594Y-87140142D02*
X163306070Y-87079666D01*
X163185118Y-86656333D02*
X163185118Y-85870142D01*
X163185118Y-85870142D02*
X163668927Y-86293476D01*
X163668927Y-86293476D02*
X163668927Y-86112047D01*
X163668927Y-86112047D02*
X163729403Y-85991095D01*
X163729403Y-85991095D02*
X163789880Y-85930619D01*
X163789880Y-85930619D02*
X163910832Y-85870142D01*
X163910832Y-85870142D02*
X164213213Y-85870142D01*
X164213213Y-85870142D02*
X164334165Y-85930619D01*
X164334165Y-85930619D02*
X164394642Y-85991095D01*
X164394642Y-85991095D02*
X164455118Y-86112047D01*
X164455118Y-86112047D02*
X164455118Y-86474904D01*
X164455118Y-86474904D02*
X164394642Y-86595857D01*
X164394642Y-86595857D02*
X164334165Y-86656333D01*
X92945866Y-77488642D02*
X93127295Y-77549118D01*
X93127295Y-77549118D02*
X93429676Y-77549118D01*
X93429676Y-77549118D02*
X93550628Y-77488642D01*
X93550628Y-77488642D02*
X93611104Y-77428165D01*
X93611104Y-77428165D02*
X93671581Y-77307213D01*
X93671581Y-77307213D02*
X93671581Y-77186261D01*
X93671581Y-77186261D02*
X93611104Y-77065308D01*
X93611104Y-77065308D02*
X93550628Y-77004832D01*
X93550628Y-77004832D02*
X93429676Y-76944356D01*
X93429676Y-76944356D02*
X93187771Y-76883880D01*
X93187771Y-76883880D02*
X93066819Y-76823403D01*
X93066819Y-76823403D02*
X93006342Y-76762927D01*
X93006342Y-76762927D02*
X92945866Y-76641975D01*
X92945866Y-76641975D02*
X92945866Y-76521022D01*
X92945866Y-76521022D02*
X93006342Y-76400070D01*
X93006342Y-76400070D02*
X93066819Y-76339594D01*
X93066819Y-76339594D02*
X93187771Y-76279118D01*
X93187771Y-76279118D02*
X93490152Y-76279118D01*
X93490152Y-76279118D02*
X93671581Y-76339594D01*
X94094914Y-76279118D02*
X94397295Y-77549118D01*
X94397295Y-77549118D02*
X94639200Y-76641975D01*
X94639200Y-76641975D02*
X94881105Y-77549118D01*
X94881105Y-77549118D02*
X95183486Y-76279118D01*
X95546343Y-76279118D02*
X96332534Y-76279118D01*
X96332534Y-76279118D02*
X95909200Y-76762927D01*
X95909200Y-76762927D02*
X96090629Y-76762927D01*
X96090629Y-76762927D02*
X96211581Y-76823403D01*
X96211581Y-76823403D02*
X96272057Y-76883880D01*
X96272057Y-76883880D02*
X96332534Y-77004832D01*
X96332534Y-77004832D02*
X96332534Y-77307213D01*
X96332534Y-77307213D02*
X96272057Y-77428165D01*
X96272057Y-77428165D02*
X96211581Y-77488642D01*
X96211581Y-77488642D02*
X96090629Y-77549118D01*
X96090629Y-77549118D02*
X95727772Y-77549118D01*
X95727772Y-77549118D02*
X95606819Y-77488642D01*
X95606819Y-77488642D02*
X95546343Y-77428165D01*
X121509971Y-69973165D02*
X121449495Y-70033642D01*
X121449495Y-70033642D02*
X121268066Y-70094118D01*
X121268066Y-70094118D02*
X121147114Y-70094118D01*
X121147114Y-70094118D02*
X120965685Y-70033642D01*
X120965685Y-70033642D02*
X120844733Y-69912689D01*
X120844733Y-69912689D02*
X120784256Y-69791737D01*
X120784256Y-69791737D02*
X120723780Y-69549832D01*
X120723780Y-69549832D02*
X120723780Y-69368403D01*
X120723780Y-69368403D02*
X120784256Y-69126499D01*
X120784256Y-69126499D02*
X120844733Y-69005546D01*
X120844733Y-69005546D02*
X120965685Y-68884594D01*
X120965685Y-68884594D02*
X121147114Y-68824118D01*
X121147114Y-68824118D02*
X121268066Y-68824118D01*
X121268066Y-68824118D02*
X121449495Y-68884594D01*
X121449495Y-68884594D02*
X121509971Y-68945070D01*
X122719495Y-70094118D02*
X121993780Y-70094118D01*
X122356637Y-70094118D02*
X122356637Y-68824118D01*
X122356637Y-68824118D02*
X122235685Y-69005546D01*
X122235685Y-69005546D02*
X122114733Y-69126499D01*
X122114733Y-69126499D02*
X121993780Y-69186975D01*
X123808066Y-69247451D02*
X123808066Y-70094118D01*
X123505685Y-68763642D02*
X123203304Y-69670784D01*
X123203304Y-69670784D02*
X123989495Y-69670784D01*
D13*
%TO.C,C9*%
X134938748Y-61025000D02*
X135461252Y-61025000D01*
X134938748Y-62495000D02*
X135461252Y-62495000D01*
%TO.C,J5*%
X115840000Y-58485000D02*
X117220000Y-58485000D01*
X115840000Y-59865000D02*
X115840000Y-58485000D01*
X115840000Y-61135000D02*
X115840000Y-63785000D01*
X115840000Y-61135000D02*
X118600000Y-61135000D01*
X115840000Y-63785000D02*
X118600000Y-63785000D01*
X118600000Y-61135000D02*
X118600000Y-63785000D01*
%TO.C,U2*%
X140046900Y-72812600D02*
X140046900Y-76572600D01*
X133226900Y-72812600D02*
X133226900Y-76572600D01*
X140046900Y-76572600D02*
X138786900Y-76572600D01*
X133226900Y-76572600D02*
X134486900Y-76572600D01*
X140276900Y-71772600D02*
X139946900Y-71532600D01*
X140276900Y-71292600D01*
X140276900Y-71772600D01*
G36*
X140276900Y-71772600D02*
G01*
X139946900Y-71532600D01*
X140276900Y-71292600D01*
X140276900Y-71772600D01*
G37*
%TO.C,J4*%
X188620000Y-59120000D02*
X190000000Y-59120000D01*
X188620000Y-60500000D02*
X188620000Y-59120000D01*
X188620000Y-61770000D02*
X188620000Y-64420000D01*
X188620000Y-61770000D02*
X191380000Y-61770000D01*
X188620000Y-64420000D02*
X191380000Y-64420000D01*
X191380000Y-61770000D02*
X191380000Y-64420000D01*
%TO.C,R6*%
X125827064Y-72222500D02*
X125372936Y-72222500D01*
X125827064Y-70752500D02*
X125372936Y-70752500D01*
%TO.C,R4*%
X144905464Y-61009200D02*
X144451336Y-61009200D01*
X144905464Y-59539200D02*
X144451336Y-59539200D01*
%TO.C,J3*%
X192430000Y-59120000D02*
X193810000Y-59120000D01*
X192430000Y-60500000D02*
X192430000Y-59120000D01*
X192430000Y-61770000D02*
X192430000Y-64420000D01*
X192430000Y-61770000D02*
X195190000Y-61770000D01*
X192430000Y-64420000D02*
X195190000Y-64420000D01*
X195190000Y-61770000D02*
X195190000Y-64420000D01*
%TO.C,J6*%
X111260000Y-58460000D02*
X112640000Y-58460000D01*
X111260000Y-59840000D02*
X111260000Y-58460000D01*
X111260000Y-61110000D02*
X111260000Y-63760000D01*
X111260000Y-61110000D02*
X114020000Y-61110000D01*
X111260000Y-63760000D02*
X114020000Y-63760000D01*
X114020000Y-61110000D02*
X114020000Y-63760000D01*
%TO.C,R2*%
X161266200Y-81179464D02*
X161266200Y-80725336D01*
X162736200Y-81179464D02*
X162736200Y-80725336D01*
%TO.C,R8*%
X125917064Y-66025000D02*
X125462936Y-66025000D01*
X125917064Y-64555000D02*
X125462936Y-64555000D01*
%TO.C,R1*%
X141784400Y-87214864D02*
X141784400Y-86760736D01*
X143254400Y-87214864D02*
X143254400Y-86760736D01*
%TO.C,R7*%
X125917064Y-63993000D02*
X125462936Y-63993000D01*
X125917064Y-62523000D02*
X125462936Y-62523000D01*
%TO.C,R3*%
X160224736Y-59463000D02*
X160678864Y-59463000D01*
X160224736Y-60933000D02*
X160678864Y-60933000D01*
%TO.C,J1*%
X157171200Y-54916200D02*
X157171200Y-56616200D01*
X147831200Y-54916200D02*
X147831200Y-56616200D01*
%TO.C,C8*%
X135453752Y-58405000D02*
X134931248Y-58405000D01*
X135453752Y-56935000D02*
X134931248Y-56935000D01*
%TO.C,R5*%
X134952936Y-58965000D02*
X135407064Y-58965000D01*
X134952936Y-60435000D02*
X135407064Y-60435000D01*
D12*
%TO.C,IC1*%
X160447600Y-84650400D02*
X160447600Y-84650400D01*
X160447600Y-84750400D02*
X160447600Y-84750400D01*
X160447600Y-84650400D02*
G75*
G02*
X160447600Y-84750400I0J-50000D01*
G01*
X160447600Y-84750400D02*
G75*
G02*
X160447600Y-84650400I0J50000D01*
G01*
%TO.C,SW2*%
X107240000Y-68690000D02*
X107240000Y-66290000D01*
X102040000Y-64390000D02*
X106840000Y-64390000D01*
X101440000Y-70590000D02*
X106840000Y-70590000D01*
X101040000Y-66290000D02*
X101040000Y-68690000D01*
%TO.C,SW5*%
X110537200Y-75789600D02*
X110537200Y-78189600D01*
X110937200Y-80089600D02*
X116337200Y-80089600D01*
X111537200Y-73889600D02*
X116337200Y-73889600D01*
X116737200Y-78189600D02*
X116737200Y-75789600D01*
D14*
%TO.C,LED4*%
X129343200Y-54467600D02*
X129343200Y-54067600D01*
D12*
X129743200Y-55967600D02*
X129743200Y-55967600D01*
X129743200Y-56067600D02*
X129743200Y-56067600D01*
D14*
X130143200Y-54467600D02*
X130143200Y-54067600D01*
D12*
X129743200Y-55967600D02*
G75*
G02*
X129743200Y-56067600I0J-50000D01*
G01*
X129743200Y-56067600D02*
G75*
G02*
X129743200Y-55967600I0J50000D01*
G01*
D14*
%TO.C,S2*%
X158874800Y-57440400D02*
X158874800Y-53440400D01*
D12*
X160324800Y-58640400D02*
X160324800Y-58640400D01*
X160324800Y-58740400D02*
X160324800Y-58740400D01*
D14*
X161774800Y-57440400D02*
X161774800Y-53440400D01*
D12*
X160324800Y-58640400D02*
G75*
G02*
X160324800Y-58740400I0J-50000D01*
G01*
X160324800Y-58740400D02*
G75*
G02*
X160324800Y-58640400I0J50000D01*
G01*
D14*
%TO.C,LED1*%
X138258600Y-54042200D02*
X138258600Y-54442200D01*
D12*
X138658600Y-52442200D02*
X138658600Y-52442200D01*
X138658600Y-52542200D02*
X138658600Y-52542200D01*
D14*
X139058600Y-54042200D02*
X139058600Y-54442200D01*
D12*
X138658600Y-52442200D02*
G75*
G02*
X138658600Y-52542200I0J-50000D01*
G01*
X138658600Y-52542200D02*
G75*
G02*
X138658600Y-52442200I0J50000D01*
G01*
D14*
%TO.C,C13*%
X125677500Y-73912500D02*
X125677500Y-72862500D01*
%TO.C,VR1*%
X113370000Y-94800000D02*
X119620000Y-94800000D01*
X113370000Y-106500000D02*
X113370000Y-94800000D01*
X119620000Y-96175000D02*
X119620000Y-93975000D01*
X119620000Y-102775000D02*
X119620000Y-98575000D01*
X119620000Y-106500000D02*
X113370000Y-106500000D01*
X119620000Y-107175000D02*
X119620000Y-105175000D01*
X122370000Y-91950000D02*
X132970000Y-91950000D01*
X122570000Y-108650000D02*
X132770000Y-108650000D01*
X122820000Y-108650000D02*
X122820000Y-111600000D01*
X122820000Y-111600000D02*
X132420000Y-111600000D01*
D12*
X125120000Y-112100000D02*
X125120000Y-112100000D01*
X125120000Y-112200000D02*
X125120000Y-112200000D01*
D14*
X132420000Y-111600000D02*
X132420000Y-108650000D01*
X132770000Y-92650000D02*
X122570000Y-92650000D01*
X135620000Y-95850000D02*
X138570000Y-95850000D01*
X135620000Y-107175000D02*
X135620000Y-94175000D01*
X138570000Y-95850000D02*
X138570000Y-105450000D01*
X138570000Y-105450000D02*
X135620000Y-105450000D01*
D12*
X125120000Y-112100000D02*
G75*
G02*
X125120000Y-112200000I0J-50000D01*
G01*
X125120000Y-112200000D02*
G75*
G02*
X125120000Y-112100000I0J50000D01*
G01*
D14*
%TO.C,C11*%
X135074400Y-66607600D02*
X135074400Y-67657600D01*
%TO.C,LED2*%
X135273000Y-54443200D02*
X135273000Y-54043200D01*
D12*
X135673000Y-55943200D02*
X135673000Y-55943200D01*
X135673000Y-56043200D02*
X135673000Y-56043200D01*
D14*
X136073000Y-54443200D02*
X136073000Y-54043200D01*
D12*
X135673000Y-55943200D02*
G75*
G02*
X135673000Y-56043200I0J-50000D01*
G01*
X135673000Y-56043200D02*
G75*
G02*
X135673000Y-55943200I0J50000D01*
G01*
D14*
%TO.C,C1*%
X128534400Y-78257600D02*
X132634400Y-78257600D01*
X132034400Y-75407600D02*
X128534400Y-75407600D01*
D12*
%TO.C,SW1*%
X195100000Y-71080000D02*
X195100000Y-82880000D01*
X195100000Y-82880000D02*
X198900000Y-82880000D01*
X198900000Y-71080000D02*
X195100000Y-71080000D01*
X203300000Y-71080000D02*
X207100000Y-71080000D01*
X207100000Y-71080000D02*
X207100000Y-73580000D01*
X207100000Y-80380000D02*
X207100000Y-82880000D01*
X207100000Y-82880000D02*
X203300000Y-82880000D01*
D14*
X209400000Y-74380000D02*
X209400000Y-74380000D01*
X209400000Y-74580000D02*
X209400000Y-74580000D01*
X209400000Y-74380000D02*
G75*
G02*
X209400000Y-74580000I0J-100000D01*
G01*
X209400000Y-74580000D02*
G75*
G02*
X209400000Y-74380000I0J100000D01*
G01*
%TO.C,C5*%
X141994400Y-83889000D02*
X143044400Y-83889000D01*
%TO.C,C10*%
X135048200Y-64706600D02*
X135048200Y-65756600D01*
D12*
%TO.C,SW6*%
X149540000Y-97380000D02*
X149540000Y-99780000D01*
X149940000Y-101680000D02*
X155340000Y-101680000D01*
X150540000Y-95480000D02*
X155340000Y-95480000D01*
X155740000Y-99780000D02*
X155740000Y-97380000D01*
%TO.C,SW4*%
X101038800Y-85274400D02*
X101038800Y-87674400D01*
X101438800Y-89574400D02*
X106838800Y-89574400D01*
X102038800Y-83374400D02*
X106838800Y-83374400D01*
X107238800Y-87674400D02*
X107238800Y-85274400D01*
D14*
%TO.C,C2*%
X128834400Y-74667600D02*
X132634400Y-74667600D01*
X132034400Y-73117600D02*
X128834400Y-73117600D01*
D12*
%TO.C,L1*%
X128470000Y-68190000D02*
X132470000Y-68190000D01*
X128470000Y-72190000D02*
X128470000Y-68190000D01*
X132470000Y-68190000D02*
X132470000Y-72190000D01*
X132470000Y-72190000D02*
X128470000Y-72190000D01*
D14*
%TO.C,LED5*%
X152835000Y-104410000D02*
X152435000Y-104410000D01*
X152835000Y-105210000D02*
X152435000Y-105210000D01*
D12*
X154335000Y-104810000D02*
X154335000Y-104810000D01*
X154435000Y-104810000D02*
X154435000Y-104810000D01*
X154335000Y-104810000D02*
G75*
G02*
X154435000Y-104810000I50000J0D01*
G01*
X154435000Y-104810000D02*
G75*
G02*
X154335000Y-104810000I-50000J0D01*
G01*
D14*
%TO.C,IC2*%
X133045000Y-59025000D02*
X133045000Y-60550000D01*
%TO.C,VR2*%
X163363400Y-94784000D02*
X169613400Y-94784000D01*
X163363400Y-106484000D02*
X163363400Y-94784000D01*
X169613400Y-96159000D02*
X169613400Y-93959000D01*
X169613400Y-102759000D02*
X169613400Y-98559000D01*
X169613400Y-106484000D02*
X163363400Y-106484000D01*
X169613400Y-107159000D02*
X169613400Y-105159000D01*
X172363400Y-91934000D02*
X182963400Y-91934000D01*
X172563400Y-108634000D02*
X182763400Y-108634000D01*
X172813400Y-108634000D02*
X172813400Y-111584000D01*
X172813400Y-111584000D02*
X182413400Y-111584000D01*
D12*
X175113400Y-112084000D02*
X175113400Y-112084000D01*
X175113400Y-112184000D02*
X175113400Y-112184000D01*
D14*
X182413400Y-111584000D02*
X182413400Y-108634000D01*
X182763400Y-92634000D02*
X172563400Y-92634000D01*
X185613400Y-95834000D02*
X188563400Y-95834000D01*
X185613400Y-107159000D02*
X185613400Y-94159000D01*
X188563400Y-95834000D02*
X188563400Y-105434000D01*
X188563400Y-105434000D02*
X185613400Y-105434000D01*
D12*
X175113400Y-112084000D02*
G75*
G02*
X175113400Y-112184000I0J-50000D01*
G01*
X175113400Y-112184000D02*
G75*
G02*
X175113400Y-112084000I0J50000D01*
G01*
%TO.C,U1*%
X183109800Y-50000000D02*
X121609800Y-50000000D01*
X121609800Y-89500000D01*
X183109800Y-89500000D01*
X183109800Y-50000000D01*
X187609800Y-60733000D02*
X185069800Y-60733000D01*
X185069800Y-78767000D01*
X187609800Y-78767000D01*
X187609800Y-60733000D01*
D14*
%TO.C,S1*%
X143253800Y-57465800D02*
X143253800Y-53465800D01*
D12*
X144703800Y-58665800D02*
X144703800Y-58665800D01*
X144703800Y-58765800D02*
X144703800Y-58765800D01*
D14*
X146153800Y-57465800D02*
X146153800Y-53465800D01*
D12*
X144703800Y-58665800D02*
G75*
G02*
X144703800Y-58765800I0J-50000D01*
G01*
X144703800Y-58765800D02*
G75*
G02*
X144703800Y-58665800I0J50000D01*
G01*
D14*
%TO.C,LED3*%
X132289600Y-54043200D02*
X132289600Y-54443200D01*
D12*
X132689600Y-52443200D02*
X132689600Y-52443200D01*
X132689600Y-52543200D02*
X132689600Y-52543200D01*
D14*
X133089600Y-54043200D02*
X133089600Y-54443200D01*
D12*
X132689600Y-52443200D02*
G75*
G02*
X132689600Y-52543200I0J-50000D01*
G01*
X132689600Y-52543200D02*
G75*
G02*
X132689600Y-52443200I0J50000D01*
G01*
D14*
%TO.C,C12*%
X135048200Y-68542000D02*
X135048200Y-69592000D01*
%TO.C,C3*%
X164405800Y-84127400D02*
X163355800Y-84127400D01*
D12*
%TO.C,SW3*%
X91539200Y-75774800D02*
X91539200Y-78174800D01*
X91939200Y-80074800D02*
X97339200Y-80074800D01*
X92539200Y-73874800D02*
X97339200Y-73874800D01*
X97739200Y-78174800D02*
X97739200Y-75774800D01*
D14*
%TO.C,C14*%
X125677500Y-68992500D02*
X125677500Y-70042500D01*
%TD*%
M02*
