%TF.GenerationSoftware,KiCad,Pcbnew,9.0.2*%
%TF.CreationDate,2025-07-28T22:14:06+01:00*%
%TF.ProjectId,hexControllerV3,68657843-6f6e-4747-926f-6c6c65725633,rev?*%
%TF.SameCoordinates,Original*%
%TF.FileFunction,Soldermask,Bot*%
%TF.FilePolarity,Negative*%
%FSLAX46Y46*%
G04 Gerber Fmt 4.6, Leading zero omitted, Abs format (unit mm)*
G04 Created by KiCad (PCBNEW 9.0.2) date 2025-07-28 22:14:06*
%MOMM*%
%LPD*%
G01*
G04 APERTURE LIST*
%ADD10R,1.575000X1.575000*%
%ADD11C,1.575000*%
%ADD12R,1.700000X1.700000*%
%ADD13C,1.700000*%
%ADD14R,1.500000X1.500000*%
%ADD15C,1.500000*%
%ADD16C,2.400000*%
%ADD17C,1.800000*%
%ADD18C,3.786000*%
%ADD19C,5.000000*%
%ADD20C,1.905000*%
%ADD21C,0.650000*%
%ADD22O,1.000000X2.100000*%
%ADD23O,1.000000X1.800000*%
G04 APERTURE END LIST*
D10*
%TO.C,SW5*%
X110312200Y-75184000D03*
D11*
X116812200Y-75184000D03*
X110312200Y-79684000D03*
X116812200Y-79684000D03*
%TD*%
D12*
%TO.C,J5*%
X117220000Y-59865000D03*
D13*
X117220000Y-62405000D03*
%TD*%
D14*
%TO.C,VR1*%
X125083200Y-110750000D03*
D15*
X127583200Y-110750000D03*
X130083200Y-110750000D03*
X137433200Y-103500000D03*
X137433200Y-101000000D03*
X137433200Y-98500000D03*
D16*
X120833200Y-108750000D03*
X134333200Y-108750000D03*
X134333200Y-93250000D03*
X120833200Y-93250000D03*
D15*
X114733200Y-104250000D03*
X114733200Y-97750000D03*
X119233200Y-104250000D03*
X119233200Y-97750000D03*
%TD*%
D12*
%TO.C,J4*%
X190000000Y-60500000D03*
D13*
X190000000Y-63040000D03*
%TD*%
D10*
%TO.C,SW2*%
X100815000Y-65684400D03*
D11*
X107315000Y-65684400D03*
X100815000Y-70184400D03*
X107315000Y-70184400D03*
%TD*%
D12*
%TO.C,J2*%
X196390000Y-95170000D03*
D13*
X196390000Y-97710000D03*
%TD*%
D12*
%TO.C,J3*%
X193810000Y-60500000D03*
D13*
X193810000Y-63040000D03*
%TD*%
D17*
%TO.C,SW1*%
X193668000Y-74929600D03*
X193668000Y-79929600D03*
X193668000Y-77429600D03*
D18*
X201168000Y-71729600D03*
X201168000Y-83129600D03*
D17*
X208168000Y-74929600D03*
X208168000Y-79929600D03*
%TD*%
D10*
%TO.C,SW6*%
X149109800Y-96860800D03*
D11*
X155609800Y-96860800D03*
X149109800Y-101360800D03*
X155609800Y-101360800D03*
%TD*%
D10*
%TO.C,SW4*%
X100813800Y-84668800D03*
D11*
X107313800Y-84668800D03*
X100813800Y-89168800D03*
X107313800Y-89168800D03*
%TD*%
D12*
%TO.C,J6*%
X112640000Y-59840000D03*
D13*
X112640000Y-62380000D03*
%TD*%
D14*
%TO.C,VR2*%
X175076600Y-110734000D03*
D15*
X177576600Y-110734000D03*
X180076600Y-110734000D03*
X187426600Y-103484000D03*
X187426600Y-100984000D03*
X187426600Y-98484000D03*
D16*
X170826600Y-108734000D03*
X184326600Y-108734000D03*
X184326600Y-93234000D03*
X170826600Y-93234000D03*
D15*
X164726600Y-104234000D03*
X164726600Y-97734000D03*
X169226600Y-104234000D03*
X169226600Y-97734000D03*
%TD*%
D19*
%TO.C,U1*%
X124609800Y-53500000D03*
X124609800Y-86000000D03*
X180109800Y-53500000D03*
X180109800Y-86000000D03*
D20*
X186339800Y-62130000D03*
X186339800Y-64670000D03*
X186339800Y-67210000D03*
X186339800Y-69750000D03*
X186339800Y-72290000D03*
X186339800Y-74830000D03*
X186339800Y-77370000D03*
%TD*%
D10*
%TO.C,SW3*%
X91314200Y-75169200D03*
D11*
X97814200Y-75169200D03*
X91314200Y-79669200D03*
X97814200Y-79669200D03*
%TD*%
D21*
%TO.C,J1*%
X155391200Y-57421200D03*
X149611200Y-57421200D03*
D22*
X156821200Y-57921200D03*
D23*
X156821200Y-53741200D03*
D22*
X148181200Y-57921200D03*
D23*
X148181200Y-53741200D03*
%TD*%
D12*
%TO.C,J7*%
X109350000Y-94860000D03*
D13*
X109350000Y-97400000D03*
%TD*%
M02*
