%TF.GenerationSoftware,KiCad,Pcbnew,9.0.2*%
%TF.CreationDate,2025-07-28T22:14:06+01:00*%
%TF.ProjectId,hexControllerV3,68657843-6f6e-4747-926f-6c6c65725633,rev?*%
%TF.SameCoordinates,Original*%
%TF.FileFunction,Soldermask,Top*%
%TF.FilePolarity,Negative*%
%FSLAX46Y46*%
G04 Gerber Fmt 4.6, Leading zero omitted, Abs format (unit mm)*
G04 Created by KiCad (PCBNEW 9.0.2) date 2025-07-28 22:14:06*
%MOMM*%
%LPD*%
G01*
G04 APERTURE LIST*
G04 Aperture macros list*
%AMRoundRect*
0 Rectangle with rounded corners*
0 $1 Rounding radius*
0 $2 $3 $4 $5 $6 $7 $8 $9 X,Y pos of 4 corners*
0 Add a 4 corners polygon primitive as box body*
4,1,4,$2,$3,$4,$5,$6,$7,$8,$9,$2,$3,0*
0 Add four circle primitives for the rounded corners*
1,1,$1+$1,$2,$3*
1,1,$1+$1,$4,$5*
1,1,$1+$1,$6,$7*
1,1,$1+$1,$8,$9*
0 Add four rect primitives between the rounded corners*
20,1,$1+$1,$2,$3,$4,$5,0*
20,1,$1+$1,$4,$5,$6,$7,0*
20,1,$1+$1,$6,$7,$8,$9,0*
20,1,$1+$1,$8,$9,$2,$3,0*%
G04 Aperture macros list end*
%ADD10R,1.575000X1.575000*%
%ADD11C,1.575000*%
%ADD12R,0.800000X0.800000*%
%ADD13R,0.800000X0.400000*%
%ADD14R,0.400000X0.800000*%
%ADD15R,1.200000X1.200000*%
%ADD16RoundRect,0.250000X-0.250000X-0.475000X0.250000X-0.475000X0.250000X0.475000X-0.250000X0.475000X0*%
%ADD17R,1.800000X1.350000*%
%ADD18R,1.700000X1.700000*%
%ADD19C,1.700000*%
%ADD20R,0.940000X1.430000*%
%ADD21RoundRect,0.375000X-0.375000X0.625000X-0.375000X-0.625000X0.375000X-0.625000X0.375000X0.625000X0*%
%ADD22RoundRect,0.500000X-1.400000X0.500000X-1.400000X-0.500000X1.400000X-0.500000X1.400000X0.500000X0*%
%ADD23R,1.500000X1.500000*%
%ADD24C,1.500000*%
%ADD25C,2.400000*%
%ADD26R,1.800000X2.300000*%
%ADD27RoundRect,0.250000X0.262500X0.450000X-0.262500X0.450000X-0.262500X-0.450000X0.262500X-0.450000X0*%
%ADD28R,1.390000X0.960000*%
%ADD29C,1.800000*%
%ADD30C,3.786000*%
%ADD31R,1.390000X0.910000*%
%ADD32R,1.700000X1.300000*%
%ADD33R,3.400000X0.980000*%
%ADD34RoundRect,0.250000X0.450000X-0.262500X0.450000X0.262500X-0.450000X0.262500X-0.450000X-0.262500X0*%
%ADD35R,0.700000X1.525000*%
%ADD36R,3.100000X2.210000*%
%ADD37C,5.000000*%
%ADD38C,1.905000*%
%ADD39R,1.430000X0.940000*%
%ADD40RoundRect,0.250000X-0.262500X-0.450000X0.262500X-0.450000X0.262500X0.450000X-0.262500X0.450000X0*%
%ADD41C,0.650000*%
%ADD42RoundRect,0.150000X0.150000X0.425000X-0.150000X0.425000X-0.150000X-0.425000X0.150000X-0.425000X0*%
%ADD43RoundRect,0.075000X0.075000X0.500000X-0.075000X0.500000X-0.075000X-0.500000X0.075000X-0.500000X0*%
%ADD44O,1.000000X2.100000*%
%ADD45O,1.000000X1.800000*%
%ADD46RoundRect,0.250000X0.250000X0.475000X-0.250000X0.475000X-0.250000X-0.475000X0.250000X-0.475000X0*%
G04 APERTURE END LIST*
D10*
%TO.C,SW5*%
X110312200Y-75184000D03*
D11*
X116812200Y-75184000D03*
X110312200Y-79684000D03*
X116812200Y-79684000D03*
%TD*%
D12*
%TO.C,LED4*%
X129743200Y-55092600D03*
X129743200Y-53442600D03*
%TD*%
D13*
%TO.C,IC1*%
X159247600Y-84700400D03*
X159247600Y-83850400D03*
X159247600Y-83000400D03*
X159247600Y-82150400D03*
X159247600Y-81300400D03*
X159247600Y-80450400D03*
X159247600Y-79600400D03*
X159247600Y-78750400D03*
X159247600Y-77900400D03*
X159247600Y-77050400D03*
X159247600Y-76200400D03*
X159247600Y-75350400D03*
X159247600Y-74500400D03*
X159247600Y-73650400D03*
X159247600Y-72800400D03*
D14*
X158197600Y-71750400D03*
X157347600Y-71750400D03*
X156497600Y-71750400D03*
X155647600Y-71750400D03*
X154797600Y-71750400D03*
X153947600Y-71750400D03*
X153097600Y-71750400D03*
X152247600Y-71750400D03*
X151397600Y-71750400D03*
X150547600Y-71750400D03*
X149697600Y-71750400D03*
X148847600Y-71750400D03*
X147997600Y-71750400D03*
X147147600Y-71750400D03*
X146297600Y-71750400D03*
D13*
X145247600Y-72800400D03*
X145247600Y-73650400D03*
X145247600Y-74500400D03*
X145247600Y-75350400D03*
X145247600Y-76200400D03*
X145247600Y-77050400D03*
X145247600Y-77900400D03*
X145247600Y-78750400D03*
X145247600Y-79600400D03*
X145247600Y-80450400D03*
X145247600Y-81300400D03*
X145247600Y-82150400D03*
X145247600Y-83000400D03*
X145247600Y-83850400D03*
X145247600Y-84700400D03*
D14*
X146297600Y-85750400D03*
X147147600Y-85750400D03*
X147997600Y-85750400D03*
X148847600Y-85750400D03*
X149697600Y-85750400D03*
X150547600Y-85750400D03*
X151397600Y-85750400D03*
X152247600Y-85750400D03*
X153097600Y-85750400D03*
X153947600Y-85750400D03*
X154797600Y-85750400D03*
X155647600Y-85750400D03*
X156497600Y-85750400D03*
X157347600Y-85750400D03*
X158197600Y-85750400D03*
D15*
X152247600Y-78750400D03*
D12*
X159247600Y-85750400D03*
X159247600Y-71750400D03*
X145247600Y-71750400D03*
X145247600Y-85750400D03*
D15*
X153897600Y-80400400D03*
X153897600Y-78750400D03*
X153897600Y-77100400D03*
X152247600Y-77100400D03*
X150597600Y-77100400D03*
X150597600Y-78750400D03*
X150597600Y-80400400D03*
X152247600Y-80400400D03*
%TD*%
D16*
%TO.C,C9*%
X134250000Y-61760000D03*
X136150000Y-61760000D03*
%TD*%
D17*
%TO.C,S2*%
X160324800Y-57515400D03*
X160324800Y-53365400D03*
%TD*%
D18*
%TO.C,J5*%
X117220000Y-59865000D03*
D19*
X117220000Y-62405000D03*
%TD*%
D12*
%TO.C,LED1*%
X138658600Y-53417200D03*
X138658600Y-55067200D03*
%TD*%
D20*
%TO.C,C13*%
X126497500Y-73387500D03*
X124857500Y-73387500D03*
%TD*%
D21*
%TO.C,U2*%
X138936900Y-71512600D03*
X136636900Y-71512600D03*
D22*
X136636900Y-77812600D03*
D21*
X134336900Y-71512600D03*
%TD*%
D23*
%TO.C,VR1*%
X125083200Y-110750000D03*
D24*
X127583200Y-110750000D03*
X130083200Y-110750000D03*
X137433200Y-103500000D03*
X137433200Y-101000000D03*
X137433200Y-98500000D03*
D25*
X120833200Y-108750000D03*
X134333200Y-108750000D03*
X134333200Y-93250000D03*
X120833200Y-93250000D03*
D24*
X114733200Y-104250000D03*
X114733200Y-97750000D03*
X119233200Y-104250000D03*
X119233200Y-97750000D03*
%TD*%
D20*
%TO.C,C11*%
X134254400Y-67132600D03*
X135894400Y-67132600D03*
%TD*%
D12*
%TO.C,LED2*%
X135673000Y-55068200D03*
X135673000Y-53418200D03*
%TD*%
D18*
%TO.C,J4*%
X190000000Y-60500000D03*
D19*
X190000000Y-63040000D03*
%TD*%
D26*
%TO.C,C1*%
X131734400Y-76832600D03*
X128834400Y-76832600D03*
%TD*%
D27*
%TO.C,R6*%
X126512500Y-71487500D03*
X124687500Y-71487500D03*
%TD*%
%TO.C,R4*%
X145590900Y-60274200D03*
X143765900Y-60274200D03*
%TD*%
D10*
%TO.C,SW2*%
X100815000Y-65684400D03*
D11*
X107315000Y-65684400D03*
X100815000Y-70184400D03*
X107315000Y-70184400D03*
%TD*%
D28*
%TO.C,C6*%
X141325600Y-57658000D03*
X141325600Y-56078000D03*
%TD*%
D18*
%TO.C,J2*%
X196390000Y-95170000D03*
D19*
X196390000Y-97710000D03*
%TD*%
D18*
%TO.C,J3*%
X193810000Y-60500000D03*
D19*
X193810000Y-63040000D03*
%TD*%
D29*
%TO.C,SW1*%
X193668000Y-74929600D03*
X193668000Y-79929600D03*
X193668000Y-77429600D03*
D30*
X201168000Y-71729600D03*
X201168000Y-83129600D03*
D29*
X208168000Y-74929600D03*
X208168000Y-79929600D03*
%TD*%
D31*
%TO.C,C5*%
X142519400Y-84709000D03*
X142519400Y-83069000D03*
%TD*%
D20*
%TO.C,C10*%
X134228200Y-65231600D03*
X135868200Y-65231600D03*
%TD*%
D10*
%TO.C,SW6*%
X149109800Y-96860800D03*
D11*
X155609800Y-96860800D03*
X149109800Y-101360800D03*
X155609800Y-101360800D03*
%TD*%
D10*
%TO.C,SW4*%
X100813800Y-84668800D03*
D11*
X107313800Y-84668800D03*
X100813800Y-89168800D03*
X107313800Y-89168800D03*
%TD*%
D32*
%TO.C,C2*%
X131784400Y-73892600D03*
X129084400Y-73892600D03*
%TD*%
D33*
%TO.C,L1*%
X130470000Y-69005000D03*
X130470000Y-71375000D03*
%TD*%
D12*
%TO.C,LED5*%
X153136600Y-104825800D03*
X151486600Y-104825800D03*
%TD*%
D18*
%TO.C,J6*%
X112640000Y-59840000D03*
D19*
X112640000Y-62380000D03*
%TD*%
D34*
%TO.C,R2*%
X162001200Y-81864900D03*
X162001200Y-80039900D03*
%TD*%
D35*
%TO.C,IC2*%
X132345000Y-59788000D03*
X131075000Y-59788000D03*
X129805000Y-59788000D03*
X128535000Y-59788000D03*
X128535000Y-65212000D03*
X129805000Y-65212000D03*
X131075000Y-65212000D03*
X132345000Y-65212000D03*
D36*
X130440000Y-62500000D03*
%TD*%
D23*
%TO.C,VR2*%
X175076600Y-110734000D03*
D24*
X177576600Y-110734000D03*
X180076600Y-110734000D03*
X187426600Y-103484000D03*
X187426600Y-100984000D03*
X187426600Y-98484000D03*
D25*
X170826600Y-108734000D03*
X184326600Y-108734000D03*
X184326600Y-93234000D03*
X170826600Y-93234000D03*
D24*
X164726600Y-104234000D03*
X164726600Y-97734000D03*
X169226600Y-104234000D03*
X169226600Y-97734000D03*
%TD*%
D28*
%TO.C,C4*%
X161925000Y-83362800D03*
X161925000Y-84942800D03*
%TD*%
D37*
%TO.C,U1*%
X124609800Y-53500000D03*
X124609800Y-86000000D03*
X180109800Y-53500000D03*
D38*
X186339800Y-62130000D03*
X186339800Y-64670000D03*
X186339800Y-67210000D03*
X186339800Y-69750000D03*
X186339800Y-72290000D03*
X186339800Y-74830000D03*
X186339800Y-77370000D03*
%TD*%
D27*
%TO.C,R8*%
X126602500Y-65290000D03*
X124777500Y-65290000D03*
%TD*%
D17*
%TO.C,S1*%
X144703800Y-57540800D03*
X144703800Y-53390800D03*
%TD*%
D34*
%TO.C,R1*%
X142519400Y-87900300D03*
X142519400Y-86075300D03*
%TD*%
D12*
%TO.C,LED3*%
X132689600Y-53418200D03*
X132689600Y-55068200D03*
%TD*%
D20*
%TO.C,C12*%
X134228200Y-69067000D03*
X135868200Y-69067000D03*
%TD*%
D39*
%TO.C,C3*%
X163880800Y-83307400D03*
X163880800Y-84947400D03*
%TD*%
D10*
%TO.C,SW3*%
X91314200Y-75169200D03*
D11*
X97814200Y-75169200D03*
X91314200Y-79669200D03*
X97814200Y-79669200D03*
%TD*%
D20*
%TO.C,C14*%
X124857500Y-69517500D03*
X126497500Y-69517500D03*
%TD*%
D27*
%TO.C,R7*%
X126602500Y-63258000D03*
X124777500Y-63258000D03*
%TD*%
D40*
%TO.C,R3*%
X159539300Y-60198000D03*
X161364300Y-60198000D03*
%TD*%
D41*
%TO.C,J1*%
X155391200Y-57421200D03*
X149611200Y-57421200D03*
D42*
X155701200Y-58496200D03*
X154901200Y-58496200D03*
D43*
X153751200Y-58496200D03*
X152751200Y-58496200D03*
X152251200Y-58496200D03*
X151251200Y-58496200D03*
D42*
X150101200Y-58496200D03*
X149301200Y-58496200D03*
X149301200Y-58496200D03*
X150101200Y-58496200D03*
D43*
X150751200Y-58496200D03*
X151751200Y-58496200D03*
X153251200Y-58496200D03*
X154251200Y-58496200D03*
D42*
X154901200Y-58496200D03*
X155701200Y-58496200D03*
D44*
X156821200Y-57921200D03*
D45*
X156821200Y-53741200D03*
D44*
X148181200Y-57921200D03*
D45*
X148181200Y-53741200D03*
%TD*%
D46*
%TO.C,C8*%
X136142500Y-57670000D03*
X134242500Y-57670000D03*
%TD*%
D40*
%TO.C,R5*%
X134267500Y-59700000D03*
X136092500Y-59700000D03*
%TD*%
D18*
%TO.C,J7*%
X109350000Y-94860000D03*
D19*
X109350000Y-97400000D03*
%TD*%
M02*
