M48
; DRILL file {KiCad 9.0.2} date 2025-07-28T22:14:10+0100
; FORMAT={-:-/ absolute / metric / decimal}
; #@! TF.CreationDate,2025-07-28T22:14:10+01:00
; #@! TF.GenerationSoftware,Kicad,Pcbnew,9.0.2
; #@! TF.FileFunction,Plated,1,4,PTH
FMAT,2
METRIC
; #@! TA.AperFunction,Plated,PTH,ViaDrill
T1C0.300
; #@! TA.AperFunction,Plated,PTH,ComponentDrill
T2C0.600
; #@! TA.AperFunction,Plated,PTH,ComponentDrill
T3C0.800
; #@! TA.AperFunction,Plated,PTH,ComponentDrill
T4C1.000
; #@! TA.AperFunction,Plated,PTH,ComponentDrill
T5C1.050
; #@! TA.AperFunction,Plated,PTH,ComponentDrill
T6C1.200
; #@! TA.AperFunction,Plated,PTH,ComponentDrill
T7C1.600
; #@! TA.AperFunction,Plated,PTH,ComponentDrill
T8C2.524
; #@! TA.AperFunction,Plated,PTH,ComponentDrill
T9C2.800
%
G90
G05
T1
X124.84Y-74.74
X126.492Y-68.351
X126.497Y-75.204
X127.584Y-76.833
X128.24Y-62.5
X133.045Y-57.658
X136.637Y-73.355
X136.64Y-79.62
X137.444Y-65.232
X137.584Y-61.753
X140.434Y-71.523
X141.326Y-54.94
X141.376Y-58.852
X141.402Y-64.567
X142.52Y-89.23
X142.596Y-60.249
X143.92Y-74.45
X143.94Y-75.36
X143.94Y-76.22
X143.95Y-77.06
X144.704Y-54.61
X145.24Y-70.75
X145.591Y-60.274
X146.13Y-72.8
X146.14Y-82.98
X146.73Y-73.64
X147.16Y-72.56
X147.99Y-72.57
X148.768Y-60.63
X149.71Y-72.6
X150.774Y-57.125
X151.42Y-77.1
X151.76Y-62.37
X151.76Y-64.43
X152.25Y-84.82
X153.09Y-77.1
X153.21Y-62.34
X153.21Y-64.44
X153.746Y-57.125
X153.924Y-70.104
X154.05Y-104.83
X154.813Y-69.266
X155.612Y-69.295
X156.134Y-60.681
X156.498Y-70.079
X157.97Y-80.48
X157.99Y-79.64
X158.01Y-81.32
X159.25Y-70.72
X159.539Y-60.198
X160.31Y-77.05
X160.31Y-77.89
X160.31Y-78.79
X160.32Y-76.22
X160.325Y-54.458
X160.39Y-85.75
X162.585Y-60.173
X165.287Y-83.307
X165.42Y-76.44
X166.5Y-76.39
T3
X186.34Y-62.13
X186.34Y-64.67
X186.34Y-67.21
X186.34Y-69.75
X186.34Y-72.29
X186.34Y-74.83
X186.34Y-77.37
T4
X109.35Y-94.86
X109.35Y-97.4
X112.64Y-59.84
X112.64Y-62.38
X114.733Y-97.75
X114.733Y-104.25
X117.22Y-59.865
X117.22Y-62.405
X119.233Y-97.75
X119.233Y-104.25
X125.083Y-110.75
X127.583Y-110.75
X130.083Y-110.75
X137.433Y-98.5
X137.433Y-101.0
X137.433Y-103.5
X164.727Y-97.734
X164.727Y-104.234
X169.227Y-97.734
X169.227Y-104.234
X175.077Y-110.734
X177.577Y-110.734
X180.077Y-110.734
X187.427Y-98.484
X187.427Y-100.984
X187.427Y-103.484
X190.0Y-60.5
X190.0Y-63.04
X193.81Y-60.5
X193.81Y-63.04
X196.39Y-95.17
X196.39Y-97.71
T5
X91.314Y-75.169
X91.314Y-79.669
X97.814Y-75.169
X97.814Y-79.669
X100.814Y-84.669
X100.814Y-89.169
X100.815Y-65.684
X100.815Y-70.184
X107.314Y-84.669
X107.314Y-89.169
X107.315Y-65.684
X107.315Y-70.184
X110.312Y-75.184
X110.312Y-79.684
X116.812Y-75.184
X116.812Y-79.684
X149.11Y-96.861
X149.11Y-101.361
X155.61Y-96.861
X155.61Y-101.361
T6
X193.668Y-74.93
X193.668Y-77.43
X193.668Y-79.93
X208.168Y-74.93
X208.168Y-79.93
T7
X120.833Y-93.25
X120.833Y-108.75
X134.333Y-93.25
X134.333Y-108.75
X170.827Y-93.234
X170.827Y-108.734
X184.327Y-93.234
X184.327Y-108.734
T8
X201.168Y-71.73
X201.168Y-83.13
T9
X124.61Y-53.5
X124.61Y-86.0
X180.11Y-53.5
X180.11Y-86.0
T2
G00X148.181Y-54.141
M15
G01X148.181Y-53.341
M16
G05
G00X148.181Y-58.471
M15
G01X148.181Y-57.371
M16
G05
G00X156.821Y-54.141
M15
G01X156.821Y-53.341
M16
G05
G00X156.821Y-58.471
M15
G01X156.821Y-57.371
M16
G05
M30
